<?xml version="1.0" encoding="UTF-8" standalone="no"?>
<!-- Created with Inkscape (http://www.inkscape.org/) -->

<svg
   xmlns:dc="http://purl.org/dc/elements/1.1/"
   xmlns:cc="http://creativecommons.org/ns#"
   xmlns:rdf="http://www.w3.org/1999/02/22-rdf-syntax-ns#"
   xmlns:svg="http://www.w3.org/2000/svg"
   xmlns="http://www.w3.org/2000/svg"
   xmlns:xlink="http://www.w3.org/1999/xlink"
   xmlns:sodipodi="http://sodipodi.sourceforge.net/DTD/sodipodi-0.dtd"
   xmlns:inkscape="http://www.inkscape.org/namespaces/inkscape"
   id="svg4655"
   version="1.1"
   viewBox="0 0 16.933333 16.933334"
   height="64"
   width="64"
   inkscape:version="0.92.4 (5da689c313, 2019-01-14)"
   sodipodi:docname="bed-off.svg"
   style="enable-background:new">
  <defs
     id="defs4649">
    <linearGradient
       inkscape:collect="always"
       id="linearGradient834">
      <stop
         style="stop-color:#d4d4d4;stop-opacity:1;"
         offset="0"
         id="stop830" />
      <stop
         style="stop-color:#d4d4d4;stop-opacity:0;"
         offset="1"
         id="stop832" />
    </linearGradient>
    <linearGradient
       inkscape:collect="always"
       xlink:href="#linearGradient834"
       id="linearGradient836"
       x1="66.072029"
       y1="226.45695"
       x2="66.118477"
       y2="211.62328"
       gradientUnits="userSpaceOnUse" />
  </defs>
  <sodipodi:namedview
     id="base"
     pagecolor="#ffffff"
     bordercolor="#666666"
     borderopacity="1.0"
     inkscape:pageopacity="0.0"
     inkscape:pageshadow="2"
     inkscape:zoom="13.609375"
     inkscape:cx="32"
     inkscape:cy="32"
     inkscape:document-units="mm"
     inkscape:current-layer="g856"
     showgrid="false"
     units="px"
     inkscape:pagecheckerboard="true"
     fit-margin-top="0"
     fit-margin-left="0"
     fit-margin-right="0"
     fit-margin-bottom="0" />
  <metadata
     id="metadata4652">
    <rdf:RDF>
      <cc:Work
         rdf:about="">
        <dc:format>image/svg+xml</dc:format>
        <dc:type
           rdf:resource="http://purl.org/dc/dcmitype/StillImage" />
        <dc:title></dc:title>
      </cc:Work>
    </rdf:RDF>
  </metadata>
  <g
     inkscape:label="Layer 1"
     inkscape:groupmode="layer"
     id="layer1"
     transform="translate(-57.73551,-211.60624)">
    <path
       style="fill:url(#linearGradient836);fill-opacity:1;fill-rule:nonzero;stroke:none;stroke-width:0.03444756;stroke-linecap:square;stroke-linejoin:miter;stroke-miterlimit:2.4000001;stroke-dasharray:none;stroke-opacity:1"
       d="m 61.552934,219.75829 -0.628278,1.01947 2.158203,0.003 0.369252,-1.01993 z m 2.453447,0.004 -0.293738,1.02006 2.085505,0.003 c -0.206789,-0.13518 -0.343572,-0.36862 -0.343578,-0.63411 1.68e-4,-0.13917 0.03854,-0.27215 0.106951,-0.3868 z m 2.85669,0.005 c 0.06814,0.11491 0.105689,0.2474 0.105968,0.38471 -6e-6,0.26641 -0.13775,0.50052 -0.34574,0.63549 l 2.036123,0.003 -0.299959,-1.02111 z m 2.050727,0.003 0.375539,1.02124 2.158727,0.003 -0.63463,-1.0217 z m -8.252883,1.43568 v 7e-5 l -0.919265,1.49187 2.645866,0.004 0.54032,-1.49253 z m 2.92847,0.005 -0.429768,1.49273 2.646128,0.004 0.05076,-1.49344 z m 2.928666,0.005 0.05986,1.49358 2.646391,0.004 -0.438937,-1.4943 z m 2.928929,0.005 0.54962,1.4945 2.646653,0.004 -0.928762,-1.49515 z m -10.106346,2.12834 -1.472815,2.39018 3.41823,0.006 0.865756,-2.39129 z m 3.631541,0.006 v 7e-5 l -0.688597,2.39162 3.418688,0.006 0.08134,-2.39273 z m 3.631869,0.006 v 6e-5 l 0.09588,2.39306 3.419212,0.006 -0.703333,-2.39424 z m 3.632262,0.006 v 7e-5 l 0.880624,2.39457 3.419604,0.006 -1.488139,-2.39568 z"
       id="rect5308"
       inkscape:connector-curvature="0" />
    <path
       style="display:none;fill:#69b3e7;fill-opacity:1;fill-rule:nonzero;stroke:#69b3e7;stroke-width:0.50298899;stroke-linecap:square;stroke-linejoin:miter;stroke-miterlimit:2.4000001;stroke-dasharray:none;stroke-opacity:0.99442899"
       d="m 66.202176,214.62935 c -0.742995,0 -1.417977,0.28962 -1.919544,0.7615 a 2.8401699,2.7352421 0 0 1 1.919544,-0.72299 2.8401699,2.7352421 0 0 1 1.933954,0.73674 c -0.503008,-0.47998 -1.183794,-0.77525 -1.933954,-0.77525 z m 1.933954,0.77525 c 0.534872,0.51038 0.868638,1.22967 0.868638,2.02735 0,0.51371 -0.187626,1.03532 -0.47928,1.54184 a 2.8401699,2.7352421 0 0 0 0.516874,-1.57073 2.8401699,2.7352421 0 0 0 -0.906232,-1.99846 z m 0.389358,3.56919 a 2.8401699,2.7352421 0 0 1 -2.323312,1.16454 2.8401699,2.7352421 0 0 1 -2.377409,-1.24058 c 0.569226,1.05969 1.593562,2.06098 2.338899,2.76127 0.764054,-0.70735 1.774703,-1.66556 2.361822,-2.68523 z m -4.700721,-0.076 c -0.260056,-0.48413 -0.425182,-0.98041 -0.425182,-1.4658 0,-0.80485 0.339727,-1.52995 0.883047,-2.0411 a 2.8401699,2.7352421 0 0 0 -0.920641,2.01221 2.8401699,2.7352421 0 0 0 0.462776,1.49469 z"
       id="path5393"
       inkscape:connector-curvature="0" />
    <path
       style="display:none;fill:#d4d4d4;fill-opacity:1;fill-rule:nonzero;stroke:#69b3e7;stroke-width:0.28874922;stroke-linecap:square;stroke-linejoin:miter;stroke-miterlimit:2.4000001;stroke-dasharray:none;stroke-opacity:0.99442899"
       d="m 65.750125,219.84004 c -0.535753,-0.0956 -1.019446,-0.34452 -1.397742,-0.71934 -0.276978,-0.27443 -0.427888,-0.53457 -0.573114,-0.98794 -0.09494,-0.29637 -0.123654,-0.50171 -0.112258,-0.80271 0.01428,-0.37722 0.09608,-0.70258 0.258921,-1.02985 0.342645,-0.68865 0.958193,-1.15015 1.762818,-1.32165 0.278521,-0.0594 0.748955,-0.0594 1.027476,0 1.03549,0.22071 1.761148,0.93392 1.981245,1.94725 0.05036,0.23187 0.05052,0.73794 3.04e-4,0.95285 -0.08587,0.3675 -0.292158,0.82823 -0.472362,1.05499 -0.363982,0.45804 -0.966423,0.80409 -1.578769,0.90688 -0.22513,0.0378 -0.683431,0.0375 -0.896521,-5.1e-4 z"
       id="path5411"
       inkscape:connector-curvature="0" />
    <g
       id="g856"
       transform="matrix(0.12673739,0,0,0.12673739,55.393591,193.39292)"
       style="display:inline">
      <rect
         ry="4.4906737e-06"
         y="194.04903"
         x="83.606255"
         height="19.548357"
         width="3.3541417"
         id="rect3115"
         style="display:none;fill:#ff0002;fill-opacity:1;fill-rule:nonzero;stroke:none;stroke-width:2.18281245;stroke-miterlimit:4;stroke-dasharray:none;stroke-opacity:1" />
      <path
         inkscape:connector-curvature="0"
         id="rect3119"
         d="m 85.28332,176.63816 c -1.925633,0 -3.475787,2.10239 -3.475787,4.71385 v 24.93113 c -1.545294,1.10522 -2.496278,2.90128 -2.49881,4.85113 7.6e-5,3.29962 2.674977,5.97444 5.974597,5.97443 3.299619,1e-5 5.974521,-2.67481 5.974596,-5.97443 -0.0039,-1.92387 -0.934001,-3.72815 -2.498809,-4.84738 v -24.93488 c 0,-2.61146 -1.550154,-4.71385 -3.475787,-4.71385 z"
         style="display:inline;fill:none;fill-opacity:1;fill-rule:nonzero;stroke:#f4f4f4;stroke-width:2.18281245;stroke-miterlimit:4;stroke-dasharray:none;stroke-opacity:1" />
      <circle
         r="3.8715012"
         cy="211.24573"
         cx="85.283325"
         id="path3117"
         style="display:inline;fill:#0080ff;fill-opacity:1;fill-rule:nonzero;stroke:none;stroke-width:2.42478228;stroke-miterlimit:4;stroke-dasharray:none;stroke-opacity:1" />
      <rect
         ry="4.4906737e-06"
         y="195.04622"
         x="89.726212"
         height="1.4970617"
         width="1.7385232"
         id="rect6926"
         style="display:inline;fill:#f4f4f4;fill-opacity:1;fill-rule:nonzero;stroke:#f4f4f4;stroke-width:0.0873125;stroke-miterlimit:4;stroke-dasharray:none;stroke-opacity:1" />
      <rect
         style="display:inline;fill:#f4f4f4;fill-opacity:1;fill-rule:nonzero;stroke:#f4f4f4;stroke-width:0.0873125;stroke-miterlimit:4;stroke-dasharray:none;stroke-opacity:1"
         id="rect6928"
         width="1.7385232"
         height="1.4970617"
         x="89.726212"
         y="191.69795"
         ry="4.4906737e-06" />
      <rect
         ry="4.4906737e-06"
         y="188.34969"
         x="89.726212"
         height="1.4970617"
         width="1.7385232"
         id="rect6930"
         style="display:inline;fill:#f4f4f4;fill-opacity:1;fill-rule:nonzero;stroke:#f4f4f4;stroke-width:0.0873125;stroke-miterlimit:4;stroke-dasharray:none;stroke-opacity:1" />
      <rect
         style="display:inline;fill:#f4f4f4;fill-opacity:1;fill-rule:nonzero;stroke:#f4f4f4;stroke-width:0.0873125;stroke-miterlimit:4;stroke-dasharray:none;stroke-opacity:1"
         id="rect6932"
         width="1.7385232"
         height="1.4970617"
         x="89.726212"
         y="185.00142"
         ry="4.4906737e-06" />
      <rect
         ry="4.4906737e-06"
         y="181.65315"
         x="89.726212"
         height="1.4970617"
         width="1.7385232"
         id="rect6934"
         style="display:inline;fill:#f4f4f4;fill-opacity:1;fill-rule:nonzero;stroke:#f4f4f4;stroke-width:0.0873125;stroke-miterlimit:4;stroke-dasharray:none;stroke-opacity:1" />
      <rect
         style="display:inline;fill:#f4f4f4;fill-opacity:1;fill-rule:nonzero;stroke:#f4f4f4;stroke-width:0.0873125;stroke-miterlimit:4;stroke-dasharray:none;stroke-opacity:1"
         id="rect6936"
         width="1.7385232"
         height="1.4970617"
         x="89.726212"
         y="198.39449"
         ry="4.4906737e-06" />
      <rect
         ry="4.4906737e-06"
         y="201.74275"
         x="89.726212"
         height="1.4970617"
         width="1.7385232"
         id="rect6938"
         style="display:inline;fill:#f4f4f4;fill-opacity:1;fill-rule:nonzero;stroke:#f4f4f4;stroke-width:0.0873125;stroke-miterlimit:4;stroke-dasharray:none;stroke-opacity:1" />
    </g>
  </g>
</svg>
