<?xml version="1.0" encoding="UTF-8" standalone="no"?>
<!-- Created with Inkscape (http://www.inkscape.org/) -->

<svg
   xmlns:dc="http://purl.org/dc/elements/1.1/"
   xmlns:cc="http://creativecommons.org/ns#"
   xmlns:rdf="http://www.w3.org/1999/02/22-rdf-syntax-ns#"
   xmlns:svg="http://www.w3.org/2000/svg"
   xmlns="http://www.w3.org/2000/svg"
   xmlns:sodipodi="http://sodipodi.sourceforge.net/DTD/sodipodi-0.dtd"
   xmlns:inkscape="http://www.inkscape.org/namespaces/inkscape"
   width="64"
   height="64"
   viewBox="0 0 16.933333 16.933334"
   version="1.1"
   id="svg8"
   inkscape:version="0.92.4 (5da689c313, 2019-01-14)"
   sodipodi:docname="control.svg">
  <defs
     id="defs2" />
  <sodipodi:namedview
     id="base"
     pagecolor="#ffffff"
     bordercolor="#666666"
     borderopacity="1.0"
     inkscape:pageopacity="0.0"
     inkscape:pageshadow="2"
     inkscape:zoom="1.742"
     inkscape:cx="-107.99475"
     inkscape:cy="41.599964"
     inkscape:document-units="mm"
     inkscape:current-layer="g854"
     showgrid="false"
     units="px"
     inkscape:pagecheckerboard="true"
     fit-margin-top="0"
     fit-margin-left="0"
     fit-margin-right="0"
     fit-margin-bottom="0" />
  <metadata
     id="metadata5">
    <rdf:RDF>
      <cc:Work
         rdf:about="">
        <dc:format>image/svg+xml</dc:format>
        <dc:type
           rdf:resource="http://purl.org/dc/dcmitype/StillImage" />
        <dc:title></dc:title>
      </cc:Work>
    </rdf:RDF>
  </metadata>
  <g
     inkscape:label="Layer 1"
     inkscape:groupmode="layer"
     id="layer1"
     transform="translate(-57.887378,-222.12793)">
    <g
       id="g854"
       transform="matrix(0.12643581,0,0,0.12643581,57.981241,201.40637)">
      <path
         inkscape:connector-curvature="0"
         id="rect826"
         d="m 19.669083,166.07516 c -6.352886,0 -11.4675165,5.11463 -11.4675165,11.46752 v 46.19511 a 23.238375,23.238375 0 0 1 11.4675165,-3.05976 23.238375,23.238375 0 0 1 11.467517,3.04478 v -46.18013 c 0,-6.35289 -5.114631,-11.46752 -11.467517,-11.46752 z M 31.1366,264.09502 a 23.238375,23.238375 0 0 1 -11.467517,3.05976 23.238375,23.238375 0 0 1 -11.4675165,-3.04529 v 20.05614 c 0,6.35289 5.1146305,11.46751 11.4675165,11.46751 6.352886,0 11.467517,-5.11462 11.467517,-11.46751 z"
         style="display:inline;fill:#fffffe;fill-opacity:1;fill-rule:nonzero;stroke:#ffffff;stroke-width:0.26458332;stroke-linejoin:round;stroke-miterlimit:4;stroke-dasharray:none;stroke-opacity:1" />
      <path
         inkscape:connector-curvature="0"
         id="rect828"
         d="m 66.222123,166.07516 c -6.352884,0 -11.467515,5.11463 -11.467515,11.46752 v 13.38781 a 23.238375,23.238375 0 0 1 11.467515,-3.05976 23.238375,23.238375 0 0 1 11.467002,3.04478 v -13.37283 c 0,-6.35289 -5.114116,-11.46752 -11.467002,-11.46752 z m 11.467002,65.21256 a 23.238375,23.238375 0 0 1 -11.467002,3.05976 23.238375,23.238375 0 0 1 -11.467515,-3.04478 v 52.86293 c 0,6.35288 5.114631,11.46751 11.467515,11.46751 6.352886,0 11.467002,-5.11463 11.467002,-11.46751 z"
         style="fill:#fffffe;fill-opacity:1;fill-rule:nonzero;stroke:#ffffff;stroke-width:0.26458332;stroke-linejoin:round;stroke-miterlimit:4;stroke-dasharray:none;stroke-opacity:1" />
      <path
         inkscape:connector-curvature="0"
         id="rect830"
         d="m 112.77439,166.07516 c -6.35289,0 -11.467,5.11463 -11.467,11.46751 v 59.25685 a 23.238375,23.238375 0 0 1 11.467,-3.05976 23.238375,23.238375 0 0 1 11.46752,3.04477 v -59.24186 c 0,-6.35288 -5.11463,-11.46751 -11.46752,-11.46751 z m 11.46752,111.08211 a 23.238375,23.238375 0 0 1 -11.46752,3.05924 23.238375,23.238375 0 0 1 -11.467,-3.04478 v 6.99389 c 0,6.35289 5.11411,11.46752 11.467,11.46752 6.35289,0 11.46752,-5.11463 11.46752,-11.46752 z"
         style="fill:#fffffe;fill-opacity:1;fill-rule:nonzero;stroke:#ffffff;stroke-width:0.26458332;stroke-linejoin:round;stroke-miterlimit:4;stroke-dasharray:none;stroke-opacity:1" />
      <circle
         style="display:inline;fill:#0080ff;fill-opacity:1;fill-rule:nonzero;stroke:none;stroke-width:0.26458332;stroke-linejoin:round;stroke-miterlimit:4;stroke-dasharray:none;stroke-opacity:1"
         id="circle834"
         cx="19.669083"
         cy="243.91626"
         r="19.365313" />
      <circle
         r="19.365313"
         cy="211.10915"
         cx="66.221863"
         id="circle838"
         style="display:inline;fill:#0080ff;fill-opacity:1;fill-rule:nonzero;stroke:none;stroke-width:0.26458332;stroke-linejoin:round;stroke-miterlimit:4;stroke-dasharray:none;stroke-opacity:1" />
      <circle
         style="display:inline;fill:#0080ff;fill-opacity:1;fill-rule:nonzero;stroke:none;stroke-width:0.26458332;stroke-linejoin:round;stroke-miterlimit:4;stroke-dasharray:none;stroke-opacity:1"
         id="circle843"
         cx="112.77447"
         cy="256.52271"
         r="19.365313" />
    </g>
  </g>
</svg>
