<?xml version="1.0" encoding="UTF-8" standalone="no"?>
<!-- Created with Inkscape (http://www.inkscape.org/) -->

<svg
   xmlns:dc="http://purl.org/dc/elements/1.1/"
   xmlns:cc="http://creativecommons.org/ns#"
   xmlns:rdf="http://www.w3.org/1999/02/22-rdf-syntax-ns#"
   xmlns:svg="http://www.w3.org/2000/svg"
   xmlns="http://www.w3.org/2000/svg"
   xmlns:sodipodi="http://sodipodi.sourceforge.net/DTD/sodipodi-0.dtd"
   xmlns:inkscape="http://www.inkscape.org/namespaces/inkscape"
   width="64"
   height="64"
   viewBox="0 0 64 64"
   version="1.1"
   id="SVGRoot"
   inkscape:version="0.92.4 (5da689c313, 2019-01-14)"
   sodipodi:docname="Files.svg">
  <defs
     id="defs815" />
  <sodipodi:namedview
     id="base"
     pagecolor="#ffffff"
     bordercolor="#666666"
     borderopacity="1.0"
     inkscape:pageopacity="0.0"
     inkscape:pageshadow="2"
     inkscape:zoom="13.765625"
     inkscape:cx="32"
     inkscape:cy="32"
     inkscape:document-units="px"
     inkscape:current-layer="layer1"
     showgrid="false"
     inkscape:grid-bbox="true"
     inkscape:pagecheckerboard="true" />
  <metadata
     id="metadata818">
    <rdf:RDF>
      <cc:Work
         rdf:about="">
        <dc:format>image/svg+xml</dc:format>
        <dc:type
           rdf:resource="http://purl.org/dc/dcmitype/StillImage" />
        <dc:title></dc:title>
      </cc:Work>
    </rdf:RDF>
    <rdf:RDF>
      <cc:Work
         rdf:about="">
        <dc:title />
      </cc:Work>
    </rdf:RDF>
  </metadata>
  <g
     inkscape:label="Layer 1"
     inkscape:groupmode="layer"
     id="layer1"
     transform="translate(0,-192)">
    <rect
       style="display:inline;fill:#d4d4d4;fill-opacity:1;fill-rule:nonzero;stroke:#d4d4d4;stroke-width:0.13242038;stroke-miterlimit:4;stroke-dasharray:none;stroke-opacity:1"
       id="rect1382"
       width="52.394562"
       height="37.318485"
       x="94.474693"
       y="230.54428"
       ry="3.0793068"
       transform="matrix(1,0,-0.35582149,0.93455394,0,0)" />
    <path
       style="fill:none;fill-opacity:1;fill-rule:nonzero;stroke:#d4d4d4;stroke-width:1.35492849;stroke-linejoin:round;stroke-miterlimit:4;stroke-dasharray:none;stroke-opacity:1"
       d="m 2.3345856,205.68453 c -0.9034648,0 -1.63054709,0.67737 -1.63054709,1.51873 v 40.06514 c 0,0.84136 0.72708229,1.51848 1.63054709,1.51848 H 21.049917 c 0.903465,0 1.630824,-0.67712 1.630824,-1.51848 v -25.53866 c 0.07692,0.006 0.154483,0.0104 0.233088,0.0104 h 30.985004 c 1.505772,0 2.717845,-1.12905 2.717845,-2.53132 v -6.14697 c 0,-1.40229 -1.212073,-2.53131 -2.717845,-2.53131 H 30.757162 c -4.022759,-2.66623 -6.367973,-3.8569 -7.843448,-4.77298 0,0 -0.106103,-0.0724 -1.863797,-0.0724 z"
       id="rect1407"
       inkscape:connector-curvature="0"
       sodipodi:nodetypes="sssssscsssssccss" />
  </g>
</svg>
