<?xml version="1.0" encoding="UTF-8" standalone="no"?>
<!-- Svg Vector Icons : http://www.onlinewebfonts.com/icon -->

<svg
   xmlns:dc="http://purl.org/dc/elements/1.1/"
   xmlns:cc="http://creativecommons.org/ns#"
   xmlns:rdf="http://www.w3.org/1999/02/22-rdf-syntax-ns#"
   xmlns:svg="http://www.w3.org/2000/svg"
   xmlns="http://www.w3.org/2000/svg"
   xmlns:sodipodi="http://sodipodi.sourceforge.net/DTD/sodipodi-0.dtd"
   xmlns:inkscape="http://www.inkscape.org/namespaces/inkscape"
   version="1.1"
   x="0px"
   y="0px"
   viewBox="0 0 64 64"
   enable-background="new 0 0 1000 1000"
   xml:space="preserve"
   id="svg16"
   sodipodi:docname="file.svg"
   width="64"
   height="64"
   inkscape:version="0.92.4 (5da689c313, 2019-01-14)"><defs
   id="defs20" /><sodipodi:namedview
   pagecolor="#ffffff"
   bordercolor="#666666"
   borderopacity="1"
   objecttolerance="10"
   gridtolerance="10"
   guidetolerance="10"
   inkscape:pageopacity="0"
   inkscape:pageshadow="2"
   inkscape:window-width="640"
   inkscape:window-height="480"
   id="namedview18"
   showgrid="false"
   fit-margin-top="0"
   fit-margin-left="0"
   fit-margin-right="0"
   fit-margin-bottom="0"
   inkscape:zoom="0.904"
   inkscape:cx="-8.4685074"
   inkscape:cy="30.5"
   inkscape:current-layer="svg16" />
<metadata
   id="metadata2"> Svg Vector Icons : http://www.onlinewebfonts.com/icon <rdf:RDF><cc:Work
     rdf:about=""><dc:format>image/svg+xml</dc:format><dc:type
       rdf:resource="http://purl.org/dc/dcmitype/StillImage" /><dc:title></dc:title></cc:Work></rdf:RDF></metadata>
<g
   id="g14"
   transform="matrix(0.06428571,0,0,0.06428571,-0.142855,-0.142855)"><path
     d="m 836.9,990 c 16.9,0 30.6,-13.7 30.6,-30.6 V 206 c 0,-0.7 -0.3,-1.3 -0.4,-1.9 -0.2,-2.8 -0.7,-5.4 -1.6,-8 -0.4,-1 -0.6,-2 -1.1,-3 -1.4,-2.9 -3.2,-5.7 -5.5,-8.1 -0.2,-0.2 -0.3,-0.5 -0.5,-0.6 0,0 -0.1,-0.1 -0.1,-0.2 L 689.9,18.8 c -2.5,-2.5 -5.5,-4.3 -8.6,-5.8 -0.9,-0.4 -1.9,-0.7 -2.9,-1 -2.6,-0.9 -5.3,-1.4 -8,-1.6 -0.6,0 -1.2,-0.4 -1.8,-0.4 H 163.1 c -16.9,0 -30.6,13.7 -30.6,30.6 v 918.8 c 0,16.9 13.7,30.6 30.6,30.6 z M 699.1,113.6 762,175.4 H 699.1 Z M 193.7,71.3 H 637.8 V 206 c 0,16.9 13.7,30.6 30.6,30.6 H 806.2 V 928.7 H 193.7 Z"
     id="path4"
     inkscape:connector-curvature="0"
     style="fill:#d4d4d4;fill-opacity:1" /><path
     d="M 719.9,505.2 H 295.5 c -16.9,0 -30.6,13.7 -30.6,30.6 0,16.9 13.7,30.6 30.6,30.6 h 424.4 c 16.9,0 30.6,-13.7 30.6,-30.6 0,-16.9 -13.7,-30.6 -30.6,-30.6 z"
     id="path6"
     inkscape:connector-curvature="0"
     style="fill:#0080ff;fill-opacity:1" /><path
     d="M 719.9,376.6 H 295.5 c -16.9,0 -30.6,13.7 -30.6,30.6 0,16.9 13.7,30.6 30.6,30.6 h 424.4 c 16.9,0 30.6,-13.7 30.6,-30.6 0,-16.9 -13.7,-30.6 -30.6,-30.6 z"
     id="path8"
     inkscape:connector-curvature="0"
     style="fill:#0080ff;fill-opacity:1" /><path
     d="M 719.9,633.8 H 295.5 c -16.9,0 -30.6,13.7 -30.6,30.6 0,16.9 13.7,30.6 30.6,30.6 h 424.4 c 16.9,0 30.6,-13.7 30.6,-30.6 0,-16.9 -13.7,-30.6 -30.6,-30.6 z"
     id="path10"
     inkscape:connector-curvature="0"
     style="fill:#0080ff;fill-opacity:1" /><path
     d="M 719.9,762.4 H 295.5 c -16.9,0 -30.6,13.7 -30.6,30.6 0,16.9 13.7,30.6 30.6,30.6 h 424.4 c 16.9,0 30.6,-13.7 30.6,-30.6 0,-16.9 -13.7,-30.6 -30.6,-30.6 z"
     id="path12"
     inkscape:connector-curvature="0"
     style="fill:#0080ff;fill-opacity:1" /></g>
</svg>