<?xml version="1.0" encoding="UTF-8" standalone="no"?>
<!-- Created with Inkscape (http://www.inkscape.org/) -->

<svg
   xmlns:dc="http://purl.org/dc/elements/1.1/"
   xmlns:cc="http://creativecommons.org/ns#"
   xmlns:rdf="http://www.w3.org/1999/02/22-rdf-syntax-ns#"
   xmlns:svg="http://www.w3.org/2000/svg"
   xmlns="http://www.w3.org/2000/svg"
   xmlns:sodipodi="http://sodipodi.sourceforge.net/DTD/sodipodi-0.dtd"
   xmlns:inkscape="http://www.inkscape.org/namespaces/inkscape"
   width="64"
   height="64"
   viewBox="0 0 16.933332 16.933333"
   version="1.1"
   id="svg930"
   sodipodi:docname="increase.svg"
   inkscape:version="0.92.4 (5da689c313, 2019-01-14)">
  <defs
     id="defs924" />
  <sodipodi:namedview
     id="base"
     pagecolor="#ffffff"
     bordercolor="#666666"
     borderopacity="1.0"
     inkscape:pageopacity="0.0"
     inkscape:pageshadow="2"
     inkscape:zoom="1.742"
     inkscape:cx="31.499995"
     inkscape:cy="31.499992"
     inkscape:document-units="mm"
     inkscape:current-layer="layer1"
     showgrid="false"
     inkscape:pagecheckerboard="true"
     units="px"
     fit-margin-top="0"
     fit-margin-left="0"
     fit-margin-right="0"
     fit-margin-bottom="0" />
  <metadata
     id="metadata927">
    <rdf:RDF>
      <cc:Work
         rdf:about="">
        <dc:format>image/svg+xml</dc:format>
        <dc:type
           rdf:resource="http://purl.org/dc/dcmitype/StillImage" />
        <dc:title></dc:title>
      </cc:Work>
    </rdf:RDF>
  </metadata>
  <g
     inkscape:label="Layer 1"
     inkscape:groupmode="layer"
     id="layer1"
     transform="translate(-57.81146,-222.25519)">
    <path
       style="fill:#69a9e7;fill-opacity:0.99721452;fill-rule:nonzero;stroke:#69a9e7;stroke-width:0.03385269;stroke-linecap:square;stroke-linejoin:miter;stroke-miterlimit:4;stroke-dasharray:none;stroke-opacity:1"
       d="m 66.278127,222.40441 a 8.3174247,8.3174247 0 0 0 -8.317449,8.31745 8.3174247,8.3174247 0 0 0 8.317449,8.31744 8.3174247,8.3174247 0 0 0 8.317448,-8.31744 8.3174247,8.3174247 0 0 0 -8.317448,-8.31745 z m 0.0681,6.23557 c 0.08232,0 0.164645,0.0315 0.227712,0.0945 l 3.834546,3.83461 c 0.06498,0.065 0.09632,0.15033 0.09435,0.23512 -0.02498,-0.006 -0.05095,-0.01 -0.07789,-0.01 h -8.353086 c 0.01314,-0.0215 0.02875,-0.042 0.04741,-0.0607 l 3.999246,-3.99924 c 0.06307,-0.0631 0.145393,-0.0945 0.227712,-0.0945 z"
       id="path1475"
       inkscape:connector-curvature="0" />
  </g>
</svg>
