<?xml version="1.0" encoding="UTF-8" standalone="no"?>
<!-- Created with Inkscape (http://www.inkscape.org/) -->

<svg
   xmlns:dc="http://purl.org/dc/elements/1.1/"
   xmlns:cc="http://creativecommons.org/ns#"
   xmlns:rdf="http://www.w3.org/1999/02/22-rdf-syntax-ns#"
   xmlns:svg="http://www.w3.org/2000/svg"
   xmlns="http://www.w3.org/2000/svg"
   xmlns:xlink="http://www.w3.org/1999/xlink"
   xmlns:sodipodi="http://sodipodi.sourceforge.net/DTD/sodipodi-0.dtd"
   xmlns:inkscape="http://www.inkscape.org/namespaces/inkscape"
   id="svg4655"
   version="1.1"
   viewBox="0 0 16.933332 16.933334"
   height="64"
   width="64"
   inkscape:version="0.92.4 (5da689c313, 2019-01-14)"
   sodipodi:docname="move-x-.svg"
   style="enable-background:new">
  <defs
     id="defs4649">
    <linearGradient
       inkscape:collect="always"
       id="linearGradient2707">
      <stop
         style="stop-color:#d4d4d4;stop-opacity:1;"
         offset="0"
         id="stop2703" />
      <stop
         style="stop-color:#d4d4d4;stop-opacity:0;"
         offset="1"
         id="stop2705" />
    </linearGradient>
    <marker
       inkscape:stockid="TriangleOutS"
       orient="auto"
       refY="0"
       refX="0"
       id="TriangleOutS"
       style="overflow:visible"
       inkscape:isstock="true">
      <path
         id="path978"
         d="M 5.77,0 -2.88,5 V -5 Z"
         style="fill:#ffffff;fill-opacity:1;fill-rule:evenodd;stroke:#ffffff;stroke-width:1.00000003pt;stroke-opacity:1"
         transform="scale(0.2)"
         inkscape:connector-curvature="0" />
    </marker>
    <marker
       inkscape:stockid="TriangleOutL"
       orient="auto"
       refY="0"
       refX="0"
       id="TriangleOutL"
       style="overflow:visible"
       inkscape:isstock="true">
      <path
         id="path972"
         d="M 5.77,0 -2.88,5 V -5 Z"
         style="fill:#000000;fill-opacity:1;fill-rule:evenodd;stroke:#000000;stroke-width:1.00000003pt;stroke-opacity:1"
         transform="scale(0.8)"
         inkscape:connector-curvature="0" />
    </marker>
    <marker
       inkscape:stockid="Arrow2Send"
       orient="auto"
       refY="0"
       refX="0"
       id="Arrow2Send"
       style="overflow:visible"
       inkscape:isstock="true">
      <path
         id="path863"
         style="fill:#000000;fill-opacity:1;fill-rule:evenodd;stroke:#000000;stroke-width:0.625;stroke-linejoin:round;stroke-opacity:1"
         d="M 8.7185878,4.0337352 -2.2072895,0.01601326 8.7185884,-4.0017078 c -1.7454984,2.3720609 -1.7354408,5.6174519 -6e-7,8.035443 z"
         transform="matrix(-0.3,0,0,-0.3,0.69,0)"
         inkscape:connector-curvature="0" />
    </marker>
    <marker
       inkscape:stockid="Arrow2Lend"
       orient="auto"
       refY="0"
       refX="0"
       id="Arrow2Lend"
       style="overflow:visible"
       inkscape:isstock="true">
      <path
         id="path851"
         style="fill:#000000;fill-opacity:1;fill-rule:evenodd;stroke:#000000;stroke-width:0.625;stroke-linejoin:round;stroke-opacity:1"
         d="M 8.7185878,4.0337352 -2.2072895,0.01601326 8.7185884,-4.0017078 c -1.7454984,2.3720609 -1.7354408,5.6174519 -6e-7,8.035443 z"
         transform="matrix(-1.1,0,0,-1.1,-1.1,0)"
         inkscape:connector-curvature="0" />
    </marker>
    <linearGradient
       inkscape:collect="always"
       xlink:href="#linearGradient2707"
       id="linearGradient2709"
       x1="66.221779"
       y1="267.8381"
       x2="66.221779"
       y2="129.62292"
       gradientUnits="userSpaceOnUse"
       gradientTransform="matrix(0.12673737,0,0,0.12673737,57.828645,191.83082)" />
  </defs>
  <sodipodi:namedview
     id="base"
     pagecolor="#ffffff"
     bordercolor="#666666"
     borderopacity="1.0"
     inkscape:pageopacity="0.0"
     inkscape:pageshadow="2"
     inkscape:zoom="13.609375"
     inkscape:cx="-3.6371983"
     inkscape:cy="32"
     inkscape:document-units="mm"
     inkscape:current-layer="layer1"
     showgrid="false"
     units="px"
     inkscape:pagecheckerboard="true"
     fit-margin-top="0"
     fit-margin-left="0"
     fit-margin-right="0"
     fit-margin-bottom="0" />
  <metadata
     id="metadata4652">
    <rdf:RDF>
      <cc:Work
         rdf:about="">
        <dc:format>image/svg+xml</dc:format>
        <dc:type
           rdf:resource="http://purl.org/dc/dcmitype/StillImage" />
        <dc:title></dc:title>
      </cc:Work>
    </rdf:RDF>
  </metadata>
  <g
     inkscape:label="Layer 1"
     inkscape:groupmode="layer"
     id="layer1"
     transform="translate(-57.735504,-211.60848)">
    <path
       inkscape:connector-curvature="0"
       d="m 66.459961,219.76726 c 0,0 1.899501,0.003 1.899501,0.003 0,0 0.29996,1.0211 0.29996,1.0211 0,0 -2.158551,-0.003 -2.158551,-0.003 0,0 -0.04091,-1.02066 -0.04091,-1.02066 m -2.45362,-0.004 c 0,0 1.899358,0.003 1.899358,0.003 0,0 -0.03468,1.02052 -0.03468,1.02052 0,0 -2.158367,-0.004 -2.158367,-0.004 0,0 0.293685,-1.02007 0.293685,-1.02007 m 4.907424,0.008 c 0,0 1.899642,0.003 1.899642,0.003 0,0 0.63465,1.02169 0.63465,1.02169 0,0 -2.158734,-0.004 -2.158734,-0.004 0,0 -0.375558,-1.02123 -0.375558,-1.02123 m -7.360862,-0.0118 c 0,0 1.899217,0.003 1.899217,0.003 0,0 -0.369258,1.01994 -0.369258,1.01994 0,0 -2.158185,-0.003 -2.158185,-0.003 0,0 0.628226,-1.01949 0.628226,-1.01949 m 4.965143,1.45703 c 0,0 2.26731,0.004 2.26731,0.004 0,0 0.438963,1.49429 0.438963,1.49429 0,0 -2.646405,-0.004 -2.646405,-0.004 0,0 -0.05987,-1.49361 -0.05987,-1.49361 m -2.928688,-0.005 c 0,0 2.267107,0.004 2.267107,0.004 0,0 -0.05074,1.49342 -0.05074,1.49342 0,0 -2.64613,-0.004 -2.64613,-0.004 0,0 0.429767,-1.49274 0.429767,-1.49274 m 5.857638,0.01 c 0,0 2.267511,0.004 2.267511,0.004 0,0 0.928764,1.49516 0.928764,1.49516 0,0 -2.646679,-0.004 -2.646679,-0.004 0,0 -0.549596,-1.49448 -0.549596,-1.49448 m -8.786066,-0.0143 c 0,0 2.266906,0.004 2.266906,0.004 0,0 -0.540357,1.49254 -0.540357,1.49254 0,0 -2.645855,-0.004 -2.645855,-0.004 0,0 0.919306,-1.49187 0.919306,-1.49187 m 5.943097,2.15464 c 0,0 2.811764,0.005 2.811764,0.005 0,0 0.703332,2.39424 0.703332,2.39424 0,0 -3.419175,-0.006 -3.419175,-0.006 0,0 -0.09592,-2.3931 -0.09592,-2.3931 m -3.631893,-0.006 c 0,0 2.811454,0.005 2.811454,0.005 0,0 -0.0813,2.39277 -0.0813,2.39277 0,0 -3.418717,-0.006 -3.418717,-0.006 0,0 0.688566,-2.39164 0.688566,-2.39164 m 7.264188,0.012 c 0,0 2.812073,0.005 2.812073,0.005 0,0 1.488159,2.3957 1.488159,2.3957 0,0 -3.419633,-0.006 -3.419633,-0.006 0,0 -0.880599,-2.39457 -0.880599,-2.39457 m -10.89568,-0.0181 c 0,0 2.811143,0.005 2.811143,0.005 0,0 -0.865745,2.3913 -0.865745,2.3913 0,0 -3.418257,-0.006 -3.418257,-0.006 0,0 1.472859,-2.39018 1.472859,-2.39018"
       style="fill:url(#linearGradient2709);fill-opacity:1;fill-rule:nonzero;stroke:none;stroke-width:0.03444755;stroke-linecap:square;stroke-linejoin:miter;stroke-miterlimit:2.4000001;stroke-dasharray:none;stroke-opacity:1"
       id="rect5308"
       inkscape:label="Bed" />
    <g
       id="g2668"
       transform="matrix(-0.09440766,0,0,0.13472806,71.874382,188.19286)"
       inkscape:label="Arrow"
       style="fill:#0080ff;fill-opacity:1;stroke:none">
      <path
         inkscape:connector-curvature="0"
         id="path828"
         d="m 23.970794,229.24271 c 0,0 -11.015404,17.78663 -11.015404,17.78663 0,0 71.252856,0.30959 71.252856,0.30959 0,0 -3.784528,-17.88446 -3.784528,-17.88446 0,0 -56.452924,-0.21176 -56.452924,-0.21176"
         style="color:#000000;font-style:normal;font-variant:normal;font-weight:normal;font-stretch:normal;font-size:medium;line-height:normal;font-family:sans-serif;font-variant-ligatures:normal;font-variant-position:normal;font-variant-caps:normal;font-variant-numeric:normal;font-variant-alternates:normal;font-feature-settings:normal;text-indent:0;text-align:start;text-decoration:none;text-decoration-line:none;text-decoration-style:solid;text-decoration-color:#000000;letter-spacing:normal;word-spacing:normal;text-transform:none;writing-mode:lr-tb;direction:ltr;text-orientation:mixed;dominant-baseline:auto;baseline-shift:baseline;text-anchor:start;white-space:normal;shape-padding:0;clip-rule:nonzero;display:inline;overflow:visible;visibility:visible;opacity:1;isolation:auto;mix-blend-mode:normal;color-interpolation:sRGB;color-interpolation-filters:linearRGB;solid-color:#000000;solid-opacity:1;vector-effect:none;fill:#0080ff;fill-opacity:1;fill-rule:nonzero;stroke:none;stroke-width:12.39278889;stroke-linecap:butt;stroke-linejoin:miter;stroke-miterlimit:1;stroke-dasharray:none;stroke-dashoffset:0;stroke-opacity:1;color-rendering:auto;image-rendering:auto;shape-rendering:auto;text-rendering:auto;enable-background:accumulate" />
      <path
         inkscape:connector-curvature="0"
         id="path2674"
         d="m 107.20981,237.45903 c 0,0 -36.55323,22.80141 -36.55323,22.80141 0,0 -1.750728,-37.25652 -1.750728,-37.25652 0,0 38.303958,14.45511 38.303958,14.45511"
         style="fill:#0080ff;fill-opacity:1;fill-rule:evenodd;stroke:none;stroke-width:0.29732713;stroke-linecap:square;stroke-miterlimit:1;stroke-dasharray:none;stroke-opacity:1" />
    </g>
  </g>
</svg>
