<?xml version="1.0" encoding="UTF-8" standalone="no"?>
<!-- Generator: Adobe Illustrator 19.0.0, SVG Export Plug-In . SVG Version: 6.00 Build 0)  -->

<svg
   xmlns:dc="http://purl.org/dc/elements/1.1/"
   xmlns:cc="http://creativecommons.org/ns#"
   xmlns:rdf="http://www.w3.org/1999/02/22-rdf-syntax-ns#"
   xmlns:svg="http://www.w3.org/2000/svg"
   xmlns="http://www.w3.org/2000/svg"
   xmlns:sodipodi="http://sodipodi.sourceforge.net/DTD/sodipodi-0.dtd"
   xmlns:inkscape="http://www.inkscape.org/namespaces/inkscape"
   version="1.1"
   id="Layer_1"
   x="0px"
   y="0px"
   viewBox="0 0 63.999998 63.999999"
   xml:space="preserve"
   sodipodi:docname="move.svg"
   width="64"
   height="64"
   inkscape:version="0.92.4 (5da689c313, 2019-01-14)"><metadata
   id="metadata864"><rdf:RDF><cc:Work
       rdf:about=""><dc:format>image/svg+xml</dc:format><dc:type
         rdf:resource="http://purl.org/dc/dcmitype/StillImage" /><dc:title></dc:title></cc:Work></rdf:RDF></metadata><defs
   id="defs862"><marker
     inkscape:stockid="TriangleOutS"
     orient="auto"
     refY="0"
     refX="0"
     id="marker1200"
     style="overflow:visible"
     inkscape:isstock="true"><path
       id="path1198"
       d="M 5.77,0 -2.88,5 V -5 Z"
       style="fill:#d4d4d4;fill-opacity:1;fill-rule:evenodd;stroke:#d4d4d4;stroke-width:1.00000003pt;stroke-opacity:1"
       transform="scale(0.2)"
       inkscape:connector-curvature="0" /></marker><marker
     inkscape:stockid="TriangleInS"
     orient="auto"
     refY="0"
     refX="0"
     id="TriangleInS"
     style="overflow:visible"
     inkscape:isstock="true"><path
       id="path1011"
       d="M 5.77,0 -2.88,5 V -5 Z"
       style="fill:#d4d4d4;fill-opacity:1;fill-rule:evenodd;stroke:#d4d4d4;stroke-width:1.00000003pt;stroke-opacity:1"
       transform="scale(-0.2)"
       inkscape:connector-curvature="0" /></marker><marker
     inkscape:stockid="TriangleOutS"
     orient="auto"
     refY="0"
     refX="0"
     id="TriangleOutS"
     style="overflow:visible"
     inkscape:isstock="true"><path
       id="path1020"
       d="M 5.77,0 -2.88,5 V -5 Z"
       style="fill:#d4d4d4;fill-opacity:1;fill-rule:evenodd;stroke:#d4d4d4;stroke-width:1.00000003pt;stroke-opacity:1"
       transform="scale(0.2)"
       inkscape:connector-curvature="0" /></marker></defs><sodipodi:namedview
   pagecolor="#ffffff"
   bordercolor="#666666"
   borderopacity="1"
   objecttolerance="10"
   gridtolerance="10"
   guidetolerance="10"
   inkscape:pageopacity="0"
   inkscape:pageshadow="2"
   inkscape:window-width="640"
   inkscape:window-height="480"
   id="namedview860"
   showgrid="false"
   inkscape:pagecheckerboard="true"
   fit-margin-top="0"
   fit-margin-left="0"
   fit-margin-right="0"
   fit-margin-bottom="0"
   inkscape:zoom="13.765625"
   inkscape:cx="32"
   inkscape:cy="32"
   inkscape:current-layer="Layer_1" />
<g
   id="g827"
   transform="matrix(0.12874399,0,0,0.12874399,-0.91988866,-1.8857312)"
   style="display:inline">
	<g
   id="g825">
		<g
   id="g823">
			
			<path
   d="m 382.33347,130.666 v 39.147 c 0,5.333 3.84,10.133 9.067,10.88 6.613,0.96 12.267,-4.16 12.267,-10.56 v -39.467 l 39.467,-38.187 c 4.267,-4.16 4.267,-10.88 0.213,-15.147 -4.053,-4.267 -10.88,-4.373 -15.147,-0.213 l -35.2,34.133 -35.2,-34.133 c -4.267,-4.16 -10.987,-4.053 -15.147,0.213 -4.16,4.267 -4.053,10.987 0.213,15.147 z"
   id="path817"
   inkscape:connector-curvature="0"
   style="fill:#0080ff;fill-opacity:1;stroke:none;stroke-opacity:1" />
			<path
   d="M 102.89953,103.86483 H 51.806525 L 111.00653,36.237821 c 3.84,-4.48 3.413,-11.2 -0.96,-15.04 -1.92,-1.707 -4.373,-2.667 -6.933,-2.667 H 28.659525 c -5.333,0 -10.133,3.84 -10.88,9.067 -0.96,6.613 4.16,12.267 10.56,12.267 h 51.2 l -59.2,67.627009 c -3.84,4.48 -3.413,11.2 1.067,15.04 1.92,1.707 4.48,2.667 7.04,2.667 h 74.240005 c 5.333,0 10.133,-3.84 10.88,-9.067 0.853,-6.614 -4.16,-12.267 -10.667,-12.267 z"
   id="path819"
   inkscape:connector-curvature="0"
   style="fill:#0080ff;fill-opacity:1;stroke:none;stroke-opacity:1" />
			<path
   d="m 490.61666,489.71328 -31.147,-35.627 31.147,-35.627 c 4.16,-4.16 4.16,-10.88 0,-15.04 -4.16,-4.16 -10.88,-4.16 -15.04,0 -0.32,0.32 -0.64,0.747 -0.96,1.067 l -29.333,33.493 -29.227,-33.493 c -3.627,-4.693 -10.24,-5.547 -14.933,-2.027 -4.693,3.627 -5.547,10.24 -2.027,14.933 0.32,0.427 0.64,0.747 0.96,1.067 l 31.147,35.627 -31.147,35.627 c -4.16,4.16 -4.16,10.88 0,15.04 4.16,4.16 10.88,4.16 15.04,0 0.32,-0.32 0.64,-0.747 0.96,-1.067 l 29.333,-33.493 29.227,33.493 c 3.627,4.693 10.24,5.547 14.933,2.027 4.693,-3.627 5.547,-10.24 2.027,-14.933 -0.32,-0.427 -0.64,-0.747 -0.96,-1.067 z"
   id="path821"
   inkscape:connector-curvature="0"
   style="fill:#0080ff;fill-opacity:1;stroke:none;stroke-opacity:1" />
		<g
   id="g2285"
   transform="matrix(0.96419768,0,0,0.94774154,-57.077266,134.85219)"
   style="stroke-width:30;stroke-miterlimit:4;stroke-dasharray:none"><path
     inkscape:connector-curvature="0"
     id="path868"
     d="M 420.82871,338.3323 H 123.39338 V 47.802447"
     style="fill:none;stroke:#d4d4d4;stroke-width:30;stroke-linecap:butt;stroke-linejoin:miter;stroke-miterlimit:4;stroke-dasharray:none;stroke-opacity:1;marker-start:url(#TriangleInS);marker-end:url(#marker1200)" /><path
     inkscape:connector-curvature="0"
     id="path870"
     d="M 126.50661,333.90738 385.12248,66.55391"
     style="fill:none;stroke:#d4d4d4;stroke-width:30;stroke-linecap:butt;stroke-linejoin:bevel;stroke-miterlimit:4;stroke-dasharray:none;stroke-opacity:1;marker-end:url(#TriangleOutS)" /></g></g>
	</g>
</g>















<circle
   style="fill:#0080ff;fill-opacity:1;fill-rule:nonzero;stroke:none;stroke-width:30;stroke-linecap:square;stroke-linejoin:bevel;stroke-miterlimit:4;stroke-dasharray:none;stroke-opacity:1"
   id="path6017"
   cx="5.3393869"
   cy="58.1521"
   r="3.4506242" /></svg>