<?xml version="1.0" encoding="UTF-8" standalone="no"?>
<!-- Created with Inkscape (http://www.inkscape.org/) -->

<svg
   xmlns:dc="http://purl.org/dc/elements/1.1/"
   xmlns:cc="http://creativecommons.org/ns#"
   xmlns:rdf="http://www.w3.org/1999/02/22-rdf-syntax-ns#"
   xmlns:svg="http://www.w3.org/2000/svg"
   xmlns="http://www.w3.org/2000/svg"
   xmlns:xlink="http://www.w3.org/1999/xlink"
   xmlns:sodipodi="http://sodipodi.sourceforge.net/DTD/sodipodi-0.dtd"
   xmlns:inkscape="http://www.inkscape.org/namespaces/inkscape"
   id="svg4655"
   version="1.1"
   viewBox="0 0 16.933332 16.933333"
   height="64"
   width="64"
   inkscape:version="0.92.4 (5da689c313, 2019-01-14)"
   sodipodi:docname="move-y+.svg"
   style="enable-background:new">
  <defs
     id="defs4649">
    <marker
       inkscape:stockid="TriangleOutS"
       orient="auto"
       refY="0"
       refX="0"
       id="marker2717"
       style="overflow:visible"
       inkscape:isstock="true">
      <path
         id="path2715"
         d="M 5.77,0 -2.88,5 V -5 Z"
         style="fill:#ffffff;fill-opacity:1;fill-rule:evenodd;stroke:#ffffff;stroke-width:1.00000003pt;stroke-opacity:1"
         transform="scale(0.2)"
         inkscape:connector-curvature="0" />
    </marker>
    <linearGradient
       inkscape:collect="always"
       id="linearGradient2707">
      <stop
         style="stop-color:#d4d4d4;stop-opacity:1;"
         offset="0"
         id="stop2703" />
      <stop
         style="stop-color:#d4d4d4;stop-opacity:0;"
         offset="1"
         id="stop2705" />
    </linearGradient>
    <marker
       inkscape:stockid="TriangleOutS"
       orient="auto"
       refY="0"
       refX="0"
       id="TriangleOutS"
       style="overflow:visible"
       inkscape:isstock="true">
      <path
         id="path978"
         d="M 5.77,0 -2.88,5 V -5 Z"
         style="fill:#ffffff;fill-opacity:1;fill-rule:evenodd;stroke:#ffffff;stroke-width:1.00000003pt;stroke-opacity:1"
         transform="scale(0.2)"
         inkscape:connector-curvature="0" />
    </marker>
    <marker
       inkscape:stockid="TriangleOutL"
       orient="auto"
       refY="0"
       refX="0"
       id="TriangleOutL"
       style="overflow:visible"
       inkscape:isstock="true">
      <path
         id="path972"
         d="M 5.77,0 -2.88,5 V -5 Z"
         style="fill:#000000;fill-opacity:1;fill-rule:evenodd;stroke:#000000;stroke-width:1.00000003pt;stroke-opacity:1"
         transform="scale(0.8)"
         inkscape:connector-curvature="0" />
    </marker>
    <marker
       inkscape:stockid="Arrow2Send"
       orient="auto"
       refY="0"
       refX="0"
       id="Arrow2Send"
       style="overflow:visible"
       inkscape:isstock="true">
      <path
         id="path863"
         style="fill:#000000;fill-opacity:1;fill-rule:evenodd;stroke:#000000;stroke-width:0.625;stroke-linejoin:round;stroke-opacity:1"
         d="M 8.7185878,4.0337352 -2.2072895,0.01601326 8.7185884,-4.0017078 c -1.7454984,2.3720609 -1.7354408,5.6174519 -6e-7,8.035443 z"
         transform="matrix(-0.3,0,0,-0.3,0.69,0)"
         inkscape:connector-curvature="0" />
    </marker>
    <marker
       inkscape:stockid="Arrow2Lend"
       orient="auto"
       refY="0"
       refX="0"
       id="Arrow2Lend"
       style="overflow:visible"
       inkscape:isstock="true">
      <path
         id="path851"
         style="fill:#000000;fill-opacity:1;fill-rule:evenodd;stroke:#000000;stroke-width:0.625;stroke-linejoin:round;stroke-opacity:1"
         d="M 8.7185878,4.0337352 -2.2072895,0.01601326 8.7185884,-4.0017078 c -1.7454984,2.3720609 -1.7354408,5.6174519 -6e-7,8.035443 z"
         transform="matrix(-1.1,0,0,-1.1,-1.1,0)"
         inkscape:connector-curvature="0" />
    </marker>
    <linearGradient
       inkscape:collect="always"
       xlink:href="#linearGradient2707"
       id="linearGradient2709"
       x1="66.221779"
       y1="267.8381"
       x2="66.221779"
       y2="129.62292"
       gradientUnits="userSpaceOnUse"
       gradientTransform="matrix(0.12652092,0,0,0.12652092,57.842835,191.9338)" />
  </defs>
  <sodipodi:namedview
     id="base"
     pagecolor="#ffffff"
     bordercolor="#666666"
     borderopacity="1.0"
     inkscape:pageopacity="0.0"
     inkscape:pageshadow="2"
     inkscape:zoom="13.609375"
     inkscape:cx="-3.6371983"
     inkscape:cy="32"
     inkscape:document-units="mm"
     inkscape:current-layer="layer1"
     showgrid="false"
     units="px"
     inkscape:pagecheckerboard="true"
     fit-margin-top="0"
     fit-margin-left="0"
     fit-margin-right="0"
     fit-margin-bottom="0" />
  <metadata
     id="metadata4652">
    <rdf:RDF>
      <cc:Work
         rdf:about="">
        <dc:format>image/svg+xml</dc:format>
        <dc:type
           rdf:resource="http://purl.org/dc/dcmitype/StillImage" />
        <dc:title></dc:title>
      </cc:Work>
    </rdf:RDF>
  </metadata>
  <g
     inkscape:label="Layer 1"
     inkscape:groupmode="layer"
     id="layer1"
     transform="translate(-57.735376,-211.66992)">
    <path
       inkscape:connector-curvature="0"
       d="m 66.459411,219.82253 c 0,0 1.896256,0.003 1.896256,0.003 0,0 0.299448,1.01935 0.299448,1.01935 0,0 -2.154864,-0.003 -2.154864,-0.003 0,0 -0.04084,-1.01891 -0.04084,-1.01891 m -2.449431,-0.004 c 0,0 1.896115,0.003 1.896115,0.003 0,0 -0.03462,1.01878 -0.03462,1.01878 0,0 -2.154682,-0.003 -2.154682,-0.003 0,0 0.293183,-1.01833 0.293183,-1.01833 m 4.899043,0.008 c 0,0 1.896398,0.003 1.896398,0.003 0,0 0.633566,1.01994 0.633566,1.01994 0,0 -2.155047,-0.003 -2.155047,-0.003 0,0 -0.374917,-1.01949 -0.374917,-1.01949 m -7.34829,-0.0118 c 0,0 1.895973,0.003 1.895973,0.003 0,0 -0.368627,1.0182 -0.368627,1.0182 0,0 -2.154499,-0.004 -2.154499,-0.004 0,0 0.627153,-1.01775 0.627153,-1.01775 m 4.956664,1.45455 c 0,0 2.263437,0.004 2.263437,0.004 0,0 0.438213,1.49173 0.438213,1.49173 0,0 -2.641885,-0.004 -2.641885,-0.004 0,0 -0.05977,-1.49106 -0.05977,-1.49106 m -2.923687,-0.005 c 0,0 2.263236,0.004 2.263236,0.004 0,0 -0.05066,1.49087 -0.05066,1.49087 0,0 -2.641611,-0.004 -2.641611,-0.004 0,0 0.429033,-1.49019 0.429033,-1.49019 m 5.847634,0.01 c 0,0 2.263638,0.004 2.263638,0.004 0,0 0.927179,1.49261 0.927179,1.49261 0,0 -2.64216,-0.004 -2.64216,-0.004 0,0 -0.548657,-1.49193 -0.548657,-1.49193 m -8.77106,-0.0143 c 0,0 2.263033,0.004 2.263033,0.004 0,0 -0.539433,1.48999 -0.539433,1.48999 0,0 -2.641337,-0.004 -2.641337,-0.004 0,0 0.917737,-1.48932 0.917737,-1.48932 m 5.932946,2.15096 c 0,0 2.806963,0.005 2.806963,0.005 0,0 0.70213,2.39014 0.70213,2.39014 0,0 -3.413336,-0.006 -3.413336,-0.006 0,0 -0.09576,-2.38901 -0.09576,-2.38901 m -3.62569,-0.006 c 0,0 2.806652,0.005 2.806652,0.005 0,0 -0.08116,2.38869 -0.08116,2.38869 0,0 -3.412877,-0.006 -3.412877,-0.006 0,0 0.687389,-2.38755 0.687389,-2.38755 m 7.251782,0.012 c 0,0 2.80727,0.005 2.80727,0.005 0,0 1.485618,2.3916 1.485618,2.3916 0,0 -3.413793,-0.006 -3.413793,-0.006 0,0 -0.879095,-2.39048 -0.879095,-2.39048 m -10.877072,-0.018 c 0,0 2.806342,0.005 2.806342,0.005 0,0 -0.864267,2.38722 -0.864267,2.38722 0,0 -3.412419,-0.006 -3.412419,-0.006 0,0 1.470344,-2.38609 1.470344,-2.38609"
       style="fill:url(#linearGradient2709);fill-opacity:1;fill-rule:nonzero;stroke:none;stroke-width:0.03438872;stroke-linecap:square;stroke-linejoin:miter;stroke-miterlimit:2.4000001;stroke-dasharray:none;stroke-opacity:1"
       id="rect5308"
       inkscape:label="Bed" />
    <g
       id="g3367"
       style="fill:#0080ff;fill-opacity:1;stroke:none;stroke-width:0.26458332;stroke-miterlimit:1;stroke-dasharray:none"
       transform="matrix(0.09956712,0,0,0.09956712,59.640325,196.4977)"
       inkscape:label="Up Arrow">
      <path
         inkscape:connector-curvature="0"
         id="path2713"
         d="m 47.057772,236.60041 c 0,0 -7.702007,31.01838 -7.702007,31.01838 0,0 53.418629,0.0905 53.418629,0.0905 0,0 -7.894177,-31.04706 -7.894177,-31.04706 0,0 -37.822445,-0.0618 -37.822445,-0.0618"
         style="color:#000000;font-style:normal;font-variant:normal;font-weight:normal;font-stretch:normal;font-size:medium;line-height:normal;font-family:sans-serif;font-variant-ligatures:normal;font-variant-position:normal;font-variant-caps:normal;font-variant-numeric:normal;font-variant-alternates:normal;font-feature-settings:normal;text-indent:0;text-align:start;text-decoration:none;text-decoration-line:none;text-decoration-style:solid;text-decoration-color:#000000;letter-spacing:normal;word-spacing:normal;text-transform:none;writing-mode:lr-tb;direction:ltr;text-orientation:mixed;dominant-baseline:auto;baseline-shift:baseline;text-anchor:start;white-space:normal;shape-padding:0;clip-rule:nonzero;display:inline;overflow:visible;visibility:visible;opacity:1;isolation:auto;mix-blend-mode:normal;color-interpolation:sRGB;color-interpolation-filters:linearRGB;solid-color:#000000;solid-opacity:1;vector-effect:none;fill:#0080ff;fill-opacity:1;fill-rule:nonzero;stroke:none;stroke-width:0.26458332;stroke-linecap:butt;stroke-linejoin:miter;stroke-miterlimit:1;stroke-dasharray:none;stroke-dashoffset:0;stroke-opacity:1;color-rendering:auto;image-rendering:auto;shape-rendering:auto;text-rendering:auto;enable-background:accumulate" />
      <path
         inkscape:connector-curvature="0"
         id="path3373"
         d="m 65.924891,222.90995 c 0,0 42.632029,23.21583 42.632029,23.21583 0,0 -85.115726,-0.14065 -85.115726,-0.14065 0,0 42.483697,-23.07518 42.483697,-23.07518"
         style="fill:#0080ff;fill-opacity:1;fill-rule:evenodd;stroke:none;stroke-width:0.26458332;stroke-miterlimit:1;stroke-dasharray:none;stroke-opacity:1" />
    </g>
  </g>
</svg>
