<?xml version="1.0" encoding="UTF-8" standalone="no"?>
<!-- Svg Vector Icons : http://www.onlinewebfonts.com/icon -->

<svg
   xmlns:dc="http://purl.org/dc/elements/1.1/"
   xmlns:cc="http://creativecommons.org/ns#"
   xmlns:rdf="http://www.w3.org/1999/02/22-rdf-syntax-ns#"
   xmlns:svg="http://www.w3.org/2000/svg"
   xmlns="http://www.w3.org/2000/svg"
   xmlns:sodipodi="http://sodipodi.sourceforge.net/DTD/sodipodi-0.dtd"
   xmlns:inkscape="http://www.inkscape.org/namespaces/inkscape"
   version="1.1"
   x="0px"
   y="0px"
   viewBox="0 0 64 64"
   enable-background="new 0 0 1000 1000"
   xml:space="preserve"
   id="svg8"
   sodipodi:docname="move-step10.svg"
   width="64"
   height="64"
   inkscape:version="0.92.4 (5da689c313, 2019-01-14)"><defs
   id="defs12" /><sodipodi:namedview
   pagecolor="#ffffff"
   bordercolor="#666666"
   borderopacity="1"
   objecttolerance="10"
   gridtolerance="10"
   guidetolerance="10"
   inkscape:pageopacity="0"
   inkscape:pageshadow="2"
   inkscape:window-width="640"
   inkscape:window-height="480"
   id="namedview10"
   showgrid="false"
   inkscape:pagecheckerboard="true"
   fit-margin-top="0"
   fit-margin-left="0"
   fit-margin-right="0"
   fit-margin-bottom="0"
   inkscape:zoom="13.765625"
   inkscape:cx="32"
   inkscape:cy="32"
   inkscape:current-layer="svg8" />
<metadata
   id="metadata2"> Svg Vector Icons : http://www.onlinewebfonts.com/icon <rdf:RDF><cc:Work
     rdf:about=""><dc:format>image/svg+xml</dc:format><dc:type
       rdf:resource="http://purl.org/dc/dcmitype/StillImage" /><dc:title></dc:title></cc:Work></rdf:RDF></metadata>
<g
   id="g6"
   transform="matrix(0.04193917,0,0,0.04193917,5.5548729,11.029016)"><path
     d="m 529.4,69.283333 c -14.3,-10.4 -31.7,-16.6 -50.7,-16.6 -47.1,0 -85.2,38.1 -85.2,85.199997 v 85.2 c 0,23.5 -19.2,42.6 -42.6,42.6 H 95.2 c -47.1,0 -85.2,38.1 -85.2,85.2 v 298.3 c 0,47.1 38.1,85.2 85.2,85.2 h 255.7 c 23.4,0 42.6,19.2 42.6,42.6 v 85.2 c 0,47.1 38.1,85.2 85.2,85.2 19,0 36.4,-6.2 50.7,-16.6 l 429.3,-355.1 c 41.8,-41.8 41.8,-109.5 0,-151.3 z"
     id="path4"
     inkscape:connector-curvature="0"
     style="fill:#d4d4d4;fill-opacity:1" /><path
     style="fill:#d4d4d4;fill-opacity:1;stroke-width:0.60000002"
     d="m 453.60547,231.58984 c -15.43925,0 -29.25641,6.83367 -38.625,17.63282 l 248.30469,205.38672 c 25.08,25.07999 25.08,65.70124 0,90.78124 L 414.98047,750.77734 c 9.36859,10.79915 23.18575,17.63282 38.625,17.63282 11.4,0 21.83992,-3.72094 30.41992,-9.96094 l 257.58008,-213.0586 c 25.08,-25.08 25.08,-65.70125 0,-90.78124 L 484.02539,241.55078 c -8.58,-6.24 -19.01992,-9.96094 -30.41992,-9.96094 z"
     transform="matrix(1.6666667,0,0,1.6666667,-16.240855,-333.3)"
     id="path824"
     inkscape:connector-curvature="0" /></g>
</svg>