<?xml version="1.0" encoding="UTF-8" standalone="no"?>
<!-- Svg Vector Icons : http://www.onlinewebfonts.com/icon -->

<svg
   xmlns:dc="http://purl.org/dc/elements/1.1/"
   xmlns:cc="http://creativecommons.org/ns#"
   xmlns:rdf="http://www.w3.org/1999/02/22-rdf-syntax-ns#"
   xmlns:svg="http://www.w3.org/2000/svg"
   xmlns="http://www.w3.org/2000/svg"
   xmlns:sodipodi="http://sodipodi.sourceforge.net/DTD/sodipodi-0.dtd"
   xmlns:inkscape="http://www.inkscape.org/namespaces/inkscape"
   version="1.1"
   x="0px"
   y="0px"
   viewBox="0 0 64 64"
   enable-background="new 0 0 1000 1000"
   xml:space="preserve"
   id="svg8"
   sodipodi:docname="reboot.svg"
   width="64"
   height="64"
   inkscape:version="0.92.4 (5da689c313, 2019-01-14)"><defs
   id="defs12" /><sodipodi:namedview
   pagecolor="#ffffff"
   bordercolor="#666666"
   borderopacity="1"
   objecttolerance="10"
   gridtolerance="10"
   guidetolerance="10"
   inkscape:pageopacity="0"
   inkscape:pageshadow="2"
   inkscape:window-width="640"
   inkscape:window-height="480"
   id="namedview10"
   showgrid="false"
   inkscape:pagecheckerboard="true"
   inkscape:zoom="13.765625"
   inkscape:cx="32"
   inkscape:cy="32"
   inkscape:current-layer="svg8"
   fit-margin-top="0"
   fit-margin-left="0"
   fit-margin-right="0"
   fit-margin-bottom="0" />
<metadata
   id="metadata2"> Svg Vector Icons : http://www.onlinewebfonts.com/icon <rdf:RDF><cc:Work
     rdf:about=""><dc:format>image/svg+xml</dc:format><dc:type
       rdf:resource="http://purl.org/dc/dcmitype/StillImage" /><dc:title></dc:title></cc:Work></rdf:RDF></metadata>
<g
   id="g6"
   transform="matrix(0.0417949,0,0,0.0417949,11.31951,10.8877)"
   style="fill:#d6d6d6;fill-opacity:1"><path
     d="m 687,382.6 c -12.4,-5.8 -18.1,-13.7 -17,-23.5 1.1,-9.9 5.3,-17.6 12.6,-23.5 2.2,-1.5 9.3,-7.1 21.3,-16.9 12,-9.9 26.8,-21.7 44.3,-35.5 -30.6,-35 -67.1,-62.5 -109.4,-82.5 -42.2,-20 -88.1,-30 -137.7,-30 -45.9,0 -89,8.6 -129.1,25.7 -40.1,17.1 -75.1,40.6 -105,70.5 -29.9,29.8 -53.4,64.8 -70.5,104.8 -17.1,40 -25.7,83 -25.7,128.9 0,45.1 8.6,87.7 25.7,127.8 17.1,40.1 40.7,75 70.5,104.8 29.9,29.9 64.9,53.3 105,70.4 40.1,17.1 83.1,25.7 129.1,25.7 37.9,0 73.8,-6 107.7,-18 33.9,-12 64.9,-29 92.9,-50.8 28,-21.9 52.1,-47.5 72.2,-77 20,-29.5 34.8,-61.7 44.3,-96.7 5.1,-16.7 14.6,-30.6 28.4,-41.5 13.8,-10.9 30.2,-16.4 49.2,-16.4 22.6,0 41.8,8 57.4,24.1 15.7,16 23.5,35 23.5,56.8 0,10.2 -1.8,20 -5.4,29.5 -15.3,50.9 -37.9,97.9 -67.8,140.9 -29.9,43 -65.5,79.9 -106.7,110.8 -41.2,30.9 -86.9,55.2 -137.3,72.6 -50.3,17.6 -103.1,26.3 -158.5,26.3 -67.8,0 -131.6,-12.7 -191.4,-38.2 C 249.8,926.2 197.9,891.3 153.8,846.9 109.7,802.5 74.7,750.6 48.8,691.3 22.9,631.8 10,568.3 10,500.6 10,432.9 22.9,369.2 48.8,309.4 74.7,249.7 109.7,197.8 153.8,153.8 197.9,109.8 249.9,74.8 309.6,49 369.4,23.2 433.2,10.2 501,10.2 c 75.1,0 144.8,15.5 208.9,46.4 64.2,30.9 118.8,73 164,126.1 16.8,-12.4 30.8,-23.1 42.1,-32.2 11.3,-9.1 18.4,-14.8 21.3,-17 4.4,-3.6 9.1,-6.4 14.2,-8.2 5.1,-1.8 9.9,-1.8 14.2,0 4.3,1.8 8.2,5.6 11.5,11.5 3.3,5.9 5.6,14.6 7.1,26.2 0.7,6.6 1.5,17.6 2.2,33.3 0.7,15.7 1.5,33.9 2.2,54.6 0.7,20.8 1.1,42.2 1.1,64.4 0,22.2 -0.4,43.2 -1.1,62.8 -0.7,24.7 -6.6,42.6 -17.5,53.5 -5.9,5.9 -14.6,9.2 -26.3,9.9 -11.7,0.7 -24.1,-0.4 -37.2,-3.3 -19.7,-4.3 -41.4,-9.1 -65.1,-14.2 -23.7,-5.1 -46.3,-10.3 -67.8,-15.9 -21.5,-5.4 -40.5,-10.6 -56.9,-15.3 -16.1,-4.5 -26.5,-8 -30.9,-10.2 z"
     id="path4"
     inkscape:connector-curvature="0"
     style="fill:#d6d6d6;fill-opacity:1" /></g>
<circle
   style="fill:none;fill-opacity:1;fill-rule:nonzero;stroke:#0080ff;stroke-width:3.89975357;stroke-linecap:square;stroke-linejoin:miter;stroke-miterlimit:4;stroke-dasharray:none;stroke-opacity:1"
   id="path822"
   cx="32"
   cy="32"
   r="29.550123" /></svg>