<?xml version="1.0" encoding="UTF-8" standalone="no"?>
<!-- Generator: Adobe Illustrator 19.0.0, SVG Export Plug-In . SVG Version: 6.00 Build 0)  -->

<svg
   xmlns:dc="http://purl.org/dc/elements/1.1/"
   xmlns:cc="http://creativecommons.org/ns#"
   xmlns:rdf="http://www.w3.org/1999/02/22-rdf-syntax-ns#"
   xmlns:svg="http://www.w3.org/2000/svg"
   xmlns="http://www.w3.org/2000/svg"
   xmlns:sodipodi="http://sodipodi.sourceforge.net/DTD/sodipodi-0.dtd"
   xmlns:inkscape="http://www.inkscape.org/namespaces/inkscape"
   version="1.1"
   id="Layer_1"
   x="0px"
   y="0px"
   viewBox="0 0 64 64"
   xml:space="preserve"
   sodipodi:docname="settings.svg"
   width="64"
   height="64"
   inkscape:version="0.92.4 (5da689c313, 2019-01-14)"><metadata
   id="metadata49"><rdf:RDF><cc:Work
       rdf:about=""><dc:format>image/svg+xml</dc:format><dc:type
         rdf:resource="http://purl.org/dc/dcmitype/StillImage" /><dc:title></dc:title></cc:Work></rdf:RDF></metadata><defs
   id="defs47" /><sodipodi:namedview
   pagecolor="#ffffff"
   bordercolor="#666666"
   borderopacity="1"
   objecttolerance="10"
   gridtolerance="10"
   guidetolerance="10"
   inkscape:pageopacity="0"
   inkscape:pageshadow="2"
   inkscape:window-width="640"
   inkscape:window-height="480"
   id="namedview45"
   showgrid="false"
   inkscape:pagecheckerboard="true"
   fit-margin-top="0"
   fit-margin-left="0"
   fit-margin-right="0"
   fit-margin-bottom="0"
   inkscape:zoom="1.944"
   inkscape:cx="31.499841"
   inkscape:cy="31.500001"
   inkscape:current-layer="Layer_1" />
<g
   id="g12"
   transform="matrix(0.20992183,0,0,0.20992183,0.49996988,0.4999601)"
   style="fill:#d4d4d4;fill-opacity:1">
	<g
   id="g10"
   style="fill:#d4d4d4;fill-opacity:1">
		<g
   id="g8"
   style="fill:#d4d4d4;fill-opacity:1">
			<path
   d="m 150.056,113.62592 c -20.08823,0 -36.43013,16.34271 -36.43013,36.43013 0,20.08742 16.3419,36.43013 36.43013,36.43013 20.08823,0 36.43013,-16.34271 36.43013,-36.43013 0,-20.08742 -16.34271,-36.43013 -36.43013,-36.43013 z m 0,59.36762 c -12.64743,0 -22.93749,-10.28925 -22.93749,-22.93749 0,-12.64823 10.28925,-22.93749 22.93749,-22.93749 12.64823,0 22.93749,10.28926 22.93749,22.93749 0,12.64824 -10.29088,22.93749 -22.93749,22.93749 z"
   id="path2"
   inkscape:connector-curvature="0"
   style="display:inline;fill:#d4d4d4;fill-opacity:1;stroke-width:0.81036878" />
			<path
   d="m 297.365,183.342 -25.458,-22.983 v -20.608 l 25.457,-22.981 c 2.614,-2.361 3.461,-6.112 2.112,-9.366 L 285.871,74.558 c -1.348,-3.253 -4.588,-5.305 -8.115,-5.128 l -34.252,1.749 -14.571,-14.571 1.749,-34.251 c 0.18,-3.518 -1.874,-6.769 -5.128,-8.116 L 192.707,0.635 c -3.253,-1.35 -7.005,-0.501 -9.365,2.111 L 160.358,28.204 H 139.752 L 116.77,2.746 c -2.361,-2.613 -6.112,-3.458 -9.365,-2.111 L 74.559,14.24 c -3.255,1.348 -5.308,4.599 -5.128,8.116 l 1.75,34.251 -14.572,14.571 -34.252,-1.749 c -3.506,-0.188 -6.768,1.874 -8.115,5.128 L 0.635,107.403 c -1.348,3.255 -0.502,7.005 2.112,9.366 l 25.457,22.981 v 20.608 L 2.749,183.341 c -2.614,2.361 -3.461,6.112 -2.112,9.366 l 13.605,32.846 c 1.348,3.255 4.603,5.321 8.115,5.128 l 34.252,-1.749 14.572,14.571 -1.75,34.251 c -0.18,3.518 1.874,6.769 5.128,8.116 l 32.846,13.606 c 3.255,1.352 7.005,0.502 9.365,-2.111 l 22.984,-25.458 h 20.606 l 22.984,25.458 c 1.613,1.785 3.873,2.746 6.182,2.746 1.071,0 2.152,-0.208 3.183,-0.634 l 32.846,-13.606 c 3.255,-1.348 5.308,-4.599 5.128,-8.116 l -1.749,-34.251 14.571,-14.571 34.252,1.749 c 3.506,0.178 6.768,-1.874 8.115,-5.128 l 13.605,-32.846 c 1.348,-3.255 0.502,-7.005 -2.112,-9.366 z m -24.628,30.412 -32.079,-1.639 c -2.351,-0.127 -4.646,0.764 -6.311,2.428 l -19.804,19.804 c -1.666,1.666 -2.547,3.958 -2.428,6.311 l 1.638,32.079 -21.99,9.109 -21.525,-23.843 c -1.578,-1.747 -3.824,-2.746 -6.179,-2.746 h -28.006 c -2.355,0 -4.601,0.998 -6.179,2.746 l -21.525,23.843 -21.99,-9.109 1.639,-32.079 c 0.12,-2.353 -0.763,-4.646 -2.429,-6.311 L 65.766,214.543 c -1.665,-1.665 -3.955,-2.55 -6.311,-2.428 l -32.079,1.639 -9.109,-21.99 23.842,-21.525 c 1.748,-1.58 2.746,-3.824 2.746,-6.179 v -28.008 c 0,-2.355 -0.998,-4.601 -2.746,-6.179 l -23.842,-21.525 9.109,-21.99 32.079,1.639 c 2.354,0.124 4.646,-0.763 6.311,-2.428 L 85.569,65.766 c 1.666,-1.666 2.549,-3.958 2.429,-6.313 l -1.639,-32.079 21.99,-9.109 21.525,23.842 c 1.578,1.747 3.824,2.746 6.179,2.746 h 28.006 c 2.355,0 4.601,-0.998 6.179,-2.746 l 21.525,-23.842 21.99,9.109 -1.638,32.079 c -0.12,2.353 0.761,4.645 2.428,6.313 l 19.804,19.803 c 1.666,1.665 3.959,2.564 6.311,2.428 l 32.079,-1.639 9.109,21.99 -23.843,21.525 c -1.748,1.58 -2.746,3.824 -2.746,6.179 v 28.008 c 0,2.355 0.998,4.601 2.746,6.179 l 23.843,21.525 z"
   id="path4"
   inkscape:connector-curvature="0"
   style="fill:#d4d4d4;fill-opacity:1" />
			<path
   d="m 150.057,71.357 c -43.394,0 -78.698,35.305 -78.698,78.698 0,43.394 35.304,78.698 78.698,78.698 43.394,0 78.698,-35.305 78.698,-78.698 -0.001,-43.394 -35.305,-78.698 -78.698,-78.698 z m 0,140.746 c -34.214,0 -62.048,-27.834 -62.048,-62.048 0,-34.214 27.834,-62.048 62.048,-62.048 34.214,0 62.048,27.834 62.048,62.048 0,34.214 -27.836,62.048 -62.048,62.048 z"
   id="path6"
   inkscape:connector-curvature="0"
   style="fill:#d4d4d4;fill-opacity:1" />
		</g>
	</g>
</g>















</svg>