<?xml version="1.0" encoding="UTF-8" standalone="no"?>
<!-- Svg Vector Icons : http://www.onlinewebfonts.com/icon -->

<svg
   xmlns:dc="http://purl.org/dc/elements/1.1/"
   xmlns:cc="http://creativecommons.org/ns#"
   xmlns:rdf="http://www.w3.org/1999/02/22-rdf-syntax-ns#"
   xmlns:svg="http://www.w3.org/2000/svg"
   xmlns="http://www.w3.org/2000/svg"
   xmlns:sodipodi="http://sodipodi.sourceforge.net/DTD/sodipodi-0.dtd"
   xmlns:inkscape="http://www.inkscape.org/namespaces/inkscape"
   version="1.1"
   x="0px"
   y="0px"
   viewBox="0 0 64 64"
   enable-background="new 0 0 1000 1000"
   xml:space="preserve"
   id="svg12"
   sodipodi:docname="shutdown.svg"
   width="64"
   height="64"
   inkscape:version="0.92.4 (5da689c313, 2019-01-14)"><defs
   id="defs16" /><sodipodi:namedview
   pagecolor="#ffffff"
   bordercolor="#666666"
   borderopacity="1"
   objecttolerance="10"
   gridtolerance="10"
   guidetolerance="10"
   inkscape:pageopacity="0"
   inkscape:pageshadow="2"
   inkscape:window-width="640"
   inkscape:window-height="480"
   id="namedview14"
   showgrid="false"
   inkscape:pagecheckerboard="true"
   inkscape:zoom="13.765625"
   inkscape:cx="32"
   inkscape:cy="32"
   inkscape:current-layer="svg12"
   fit-margin-top="0"
   fit-margin-left="0"
   fit-margin-right="0"
   fit-margin-bottom="0" />
<metadata
   id="metadata2"> Svg Vector Icons : http://www.onlinewebfonts.com/icon <rdf:RDF><cc:Work
     rdf:about=""><dc:format>image/svg+xml</dc:format><dc:type
       rdf:resource="http://purl.org/dc/dcmitype/StillImage" /><dc:title></dc:title></cc:Work></rdf:RDF></metadata>
<g
   id="g10"
   style="fill:#d6d6d6;fill-opacity:1"
   transform="matrix(0.05349563,0,0,0.05349563,5.2522092,2.4054092)"><g
     transform="matrix(0.1,0,0,-0.1,0,512)"
     id="g8"
     style="fill:#d6d6d6;fill-opacity:1"><path
       d="m 4850.5,4190.9233 c -91.9,-19.1465 -254.7,-98.8126 -306.4,-149.8421 -26.8,-27.1381 -70.9,-84.4943 -99.6,-129.114 l -51.7,-81.331 V 2164.475 498.39699 l 51.7,-81.33098 C 4521.1,295.86038 4578.6,246.49572 4712.6,185.8929 4823.7,136.445 4846.7,131.7 4996,131.7 c 134.1,0 180,7.99158 258.6,39.87466 122.6,49.4479 237.5,145.09712 296.8,247.15626 l 47.9,79.74932 V 2164.5582 3830.553 l -47.9,79.7493 c -61.3,102.0591 -176.2,197.7084 -296.8,245.4913 -103.4,41.4564 -298.8,57.4395 -404.1,35.1297 z"
       id="path4"
       inkscape:connector-curvature="0"
       style="fill:#d6d6d6;fill-opacity:1;stroke-width:0.91239041" /><path
       d="m 2960.2,3274.6 c -40.2,-15.3 -109.2,-51.7 -153.2,-80.4 -44.1,-30.6 -101.5,-67 -128.3,-80.4 C 2581,3064 2249.7,2803.5 2065.8,2633.1 1491.2,2100.6 1043.1,1353.6 849.6,608.6 746.2,208.3 717.5,-25.3 717.5,-490.7 c 0,-465.4 28.7,-704.8 132.1,-1099.3 406,-1560.9 1702.6,-2780.9 3298,-3104.6 1384.7,-279.6 2803.9,136 3822.7,1118.5 1116.6,1078.3 1557.1,2623.8 1179.9,4142.6 -187.7,766.1 -635.9,1522.6 -1223.8,2066.5 -180,168.5 -511.4,429 -612.9,480.7 -24.9,13.4 -88.1,53.6 -139.8,86.2 -122.6,82.3 -224.1,107.2 -386.9,97.7 -151.3,-9.6 -256.7,-55.5 -373.5,-160.9 -208.8,-187.7 -249,-553.5 -86.2,-775.7 26.8,-36.4 53.6,-80.4 59.4,-99.6 7.7,-19.2 47.9,-51.7 91.9,-74.7 130.2,-65.1 394.5,-254.7 549.6,-392.6 513.3,-455.8 842.7,-1034.2 978.7,-1719.9 55.5,-279.6 59.4,-806.3 7.7,-1089.7 -233.6,-1279.4 -1210.4,-2258 -2491.7,-2493.6 -260.5,-49.8 -783.3,-47.9 -1053.4,0 -1262.1,227.9 -2233.1,1183.6 -2484,2451.5 -57.5,287.3 -61.3,810.1 -7.7,1093.6 153.2,825.5 607.1,1526.4 1294.7,1999.5 90,61.3 199.2,130.2 241.3,151.3 44,23 84.3,55.5 91.9,74.7 5.8,19.2 32.6,63.2 59.4,99.6 70.9,97.7 111.1,254.7 99.6,388.8 -19.2,210.7 -145.6,394.5 -342.8,496 -103.4,53.6 -352.3,68.9 -461.5,28.7 z"
       id="path6"
       inkscape:connector-curvature="0"
       style="fill:#d6d6d6;fill-opacity:1" /></g></g>
<ellipse
   style="fill:none;fill-opacity:1;fill-rule:nonzero;stroke:#0080ff;stroke-width:3.85574198;stroke-linecap:square;stroke-linejoin:miter;stroke-miterlimit:4;stroke-dasharray:none;stroke-opacity:1"
   id="path823"
   cx="32"
   cy="32"
   rx="29.572063"
   ry="29.216629" /></svg>