<?xml version="1.0" encoding="UTF-8" standalone="no"?>
<!-- Svg Vector Icons : http://www.onlinewebfonts.com/icon -->

<svg
   xmlns:dc="http://purl.org/dc/elements/1.1/"
   xmlns:cc="http://creativecommons.org/ns#"
   xmlns:rdf="http://www.w3.org/1999/02/22-rdf-syntax-ns#"
   xmlns:svg="http://www.w3.org/2000/svg"
   xmlns="http://www.w3.org/2000/svg"
   xmlns:sodipodi="http://sodipodi.sourceforge.net/DTD/sodipodi-0.dtd"
   xmlns:inkscape="http://www.inkscape.org/namespaces/inkscape"
   version="1.1"
   x="0px"
   y="0px"
   viewBox="0 0 64 64"
   enable-background="new 0 0 1000 1000"
   xml:space="preserve"
   id="svg8"
   sodipodi:docname="temp-step1.svg"
   width="64"
   height="64"
   inkscape:version="0.92.4 (5da689c313, 2019-01-14)"><defs
   id="defs12" /><sodipodi:namedview
   pagecolor="#ffffff"
   bordercolor="#666666"
   borderopacity="1"
   objecttolerance="10"
   gridtolerance="10"
   guidetolerance="10"
   inkscape:pageopacity="0"
   inkscape:pageshadow="2"
   inkscape:window-width="640"
   inkscape:window-height="480"
   id="namedview10"
   showgrid="false"
   inkscape:pagecheckerboard="true"
   fit-margin-top="0"
   fit-margin-left="0"
   fit-margin-right="0"
   fit-margin-bottom="0"
   inkscape:zoom="13.765625"
   inkscape:cx="14.746879"
   inkscape:cy="32"
   inkscape:current-layer="g6" />
<metadata
   id="metadata2"> Svg Vector Icons : http://www.onlinewebfonts.com/icon <rdf:RDF><cc:Work
     rdf:about=""><dc:format>image/svg+xml</dc:format><dc:type
       rdf:resource="http://purl.org/dc/dcmitype/StillImage" /><dc:title></dc:title></cc:Work></rdf:RDF></metadata>
<g
   id="g6"
   transform="matrix(0,-0.04193917,0.04193917,0,11.029016,58.445127)"><path
     d="m 659.93414,69.283333 c -14.3,-10.4 -31.7,-16.6 -50.7,-16.6 -47.1,0 -85.2,38.1 -85.2,85.199997 v 85.2 c 0,23.5 -19.2,42.6 -42.6,42.6 h -255.7 c -47.1,0 -85.2,38.1 -85.2,85.2 v 298.3 c 0,47.1 38.1,85.2 85.2,85.2 h 255.7 c 23.4,0 42.6,19.2 42.6,42.6 v 85.2 c 0,47.1 38.1,85.2 85.2,85.2 19,0 36.4,-6.2 50.7,-16.6 l 429.29996,-355.1 c 41.8,-41.8 41.8,-109.5 0,-151.3 z"
     id="path4"
     inkscape:connector-curvature="0"
     style="fill:#d4d4d4;fill-opacity:1" /></g>
</svg>