<?xml version="1.0" encoding="UTF-8" standalone="no"?>
<!-- Created with Inkscape (http://www.inkscape.org/) -->

<svg
   xmlns:dc="http://purl.org/dc/elements/1.1/"
   xmlns:cc="http://creativecommons.org/ns#"
   xmlns:rdf="http://www.w3.org/1999/02/22-rdf-syntax-ns#"
   xmlns:svg="http://www.w3.org/2000/svg"
   xmlns="http://www.w3.org/2000/svg"
   xmlns:xlink="http://www.w3.org/1999/xlink"
   xmlns:sodipodi="http://sodipodi.sourceforge.net/DTD/sodipodi-0.dtd"
   xmlns:inkscape="http://www.inkscape.org/namespaces/inkscape"
   id="svg4655"
   version="1.1"
   viewBox="0 0 132.29166 132.29167"
   height="500"
   width="500"
   enable-background="new"
   inkscape:version="0.92.4 (5da689c313, 2019-01-14)"
   sodipodi:docname="Bed Temperature.svg">
  <defs
     id="defs4649">
    <linearGradient
       inkscape:collect="always"
       id="linearGradient5387">
      <stop
         style="stop-color:#ffffff;stop-opacity:1;"
         offset="0"
         id="stop5383" />
      <stop
         style="stop-color:#ffffff;stop-opacity:0;"
         offset="1"
         id="stop5385" />
    </linearGradient>
    <linearGradient
       inkscape:collect="always"
       xlink:href="#linearGradient5387"
       id="linearGradient5389"
       x1="65.766121"
       y1="255.53543"
       x2="65.766121"
       y2="164.70831"
       gradientUnits="userSpaceOnUse"
       gradientTransform="matrix(3.8826546,0,0,3.8826546,-7.3833173,-596.97431)" />
  </defs>
  <sodipodi:namedview
     id="base"
     pagecolor="#ffffff"
     bordercolor="#666666"
     borderopacity="1.0"
     inkscape:pageopacity="0.0"
     inkscape:pageshadow="2"
     inkscape:zoom="1.742"
     inkscape:cx="250"
     inkscape:cy="250"
     inkscape:document-units="mm"
     inkscape:current-layer="layer1"
     showgrid="false"
     units="px"
     inkscape:pagecheckerboard="true" />
  <metadata
     id="metadata4652">
    <rdf:RDF>
      <cc:Work
         rdf:about="">
        <dc:format>image/svg+xml</dc:format>
        <dc:type
           rdf:resource="http://purl.org/dc/dcmitype/StillImage" />
        <dc:title></dc:title>
      </cc:Work>
    </rdf:RDF>
  </metadata>
  <g
     inkscape:label="Layer 1"
     inkscape:groupmode="layer"
     id="layer1"
     transform="translate(0,-164.70832)">
    <path
       style="fill:url(#linearGradient5389);fill-opacity:1;fill-rule:nonzero;stroke:none;stroke-width:1.02728558;stroke-linecap:square;stroke-linejoin:miter;stroke-miterlimit:2.4000001;stroke-dasharray:none;stroke-opacity:1"
       d="m 111.06445,210.35938 -18.736325,30.40234 64.361325,0.10351 11.01172,-30.41601 z m 73.16602,0.11718 -8.75977,30.41992 62.19336,0.0996 c -6.16682,-4.0312 -10.24591,-10.99279 -10.24609,-18.91015 0.005,-4.15025 1.14932,-8.11615 3.18945,-11.53516 z m 85.19141,0.13672 c 2.03197,3.42652 3.15185,7.37772 3.16015,11.47266 -1.8e-4,7.94472 -4.10793,14.92641 -10.31055,18.95117 l 60.72071,0.0977 -8.94531,-30.45118 z m 61.15624,0.0977 11.19922,30.45508 64.37696,0.10351 -18.92578,-30.46875 z M 84.462891,253.52539 v 0.002 l -27.414063,44.49024 78.904292,0.1289 16.11329,-44.50976 z m 87.332029,0.14258 -12.8164,44.51562 78.9121,0.13086 1.51368,-44.53711 z m 87.33789,0.14258 1.78516,44.54101 78.91992,0.13086 -13.08984,-44.5625 z m 87.34571,0.14257 16.39062,44.56836 78.92774,0.12891 -27.69727,-44.58789 z M 45.089844,317.42383 1.1679688,388.70312 103.10547,388.875 128.92383,317.5625 Z m 108.298826,0.17773 v 0.002 l -20.53515,71.32226 101.95117,0.17188 2.42578,-71.35547 z m 108.3086,0.17969 v 0.002 l 2.85937,71.36524 101.9668,0.17383 -20.97461,-71.40039 z m 108.32031,0.17969 v 0.002 l 26.26172,71.41016 101.97851,0.17187 -44.3789,-71.44336 z"
       transform="matrix(0.26458333,0,0,0.26458333,0,164.70832)"
       id="rect5308"
       inkscape:connector-curvature="0" />
    <path
       style="display:none;fill:#69b3e7;fill-opacity:1;fill-rule:nonzero;stroke:#69b3e7;stroke-width:3.96875;stroke-linecap:square;stroke-linejoin:miter;stroke-miterlimit:2.4000001;stroke-dasharray:none;stroke-opacity:0.99442899"
       d="m 66.145833,179.8969 c -5.862479,0 -11.188314,2.28514 -15.145845,6.00841 a 22.409881,21.581966 0 0 1 15.145845,-5.70456 22.409881,21.581966 0 0 1 15.259534,5.81308 c -3.968898,-3.78717 -9.340525,-6.11693 -15.259534,-6.11693 z m 15.259534,6.11693 c 4.220316,4.02709 6.853843,9.70248 6.853843,15.99644 0,4.05334 -1.480433,8.16902 -3.781679,12.16567 a 22.409881,21.581966 0 0 0 4.078304,-12.39356 22.409881,21.581966 0 0 0 -7.150468,-15.76855 z m 3.072164,28.16211 a 22.409881,21.581966 0 0 1 -18.331698,9.18859 22.409881,21.581966 0 0 1 -18.758545,-9.78856 c 4.491376,8.36128 12.57373,16.26179 18.454687,21.78731 6.02864,-5.58119 14.002991,-13.14182 18.635556,-21.18734 z m -37.090243,-0.59997 c -2.051931,-3.81993 -3.354832,-7.7358 -3.354832,-11.5657 0,-6.35049 2.68056,-12.07174 6.967532,-16.10496 a 22.409881,21.581966 0 0 0 -7.264157,15.87707 22.409881,21.581966 0 0 0 3.651457,11.79359 z"
       id="path5393"
       inkscape:connector-curvature="0" />
    <path
       style="display:none;fill:#d4d4d4;fill-opacity:1;fill-rule:nonzero;stroke:#69b3e7;stroke-width:2.27832699;stroke-linecap:square;stroke-linejoin:miter;stroke-miterlimit:2.4000001;stroke-dasharray:none;stroke-opacity:0.99442899"
       d="m 62.578982,221.01096 c -4.227269,-0.75427 -8.043764,-2.71843 -11.028648,-5.67586 -2.185448,-2.16536 -3.376181,-4.21794 -4.52206,-7.79514 -0.749083,-2.33849 -0.975667,-3.95873 -0.885748,-6.33372 0.112689,-2.97638 0.75811,-5.54353 2.042969,-8.12584 2.703579,-5.43366 7.560458,-9.07503 13.909218,-10.42824 2.197623,-0.46841 5.909503,-0.46841 8.107126,0 8.17036,1.74147 13.896044,7.36893 15.632679,15.36449 0.397367,1.82951 0.39865,5.82258 0.0024,7.5183 -0.677555,2.89966 -2.305224,6.53495 -3.727093,8.32422 -2.871943,3.61404 -7.625397,6.34451 -12.457009,7.15554 -1.776351,0.29817 -5.392496,0.29626 -7.073849,-0.004 z"
       id="path5411"
       inkscape:connector-curvature="0" />
    <g
       id="g856"
       transform="translate(-19.137486,12.334409)"
       style="display:inline">
      <rect
         ry="4.4906737e-06"
         y="194.04903"
         x="83.606255"
         height="19.548357"
         width="3.3541417"
         id="rect3115"
         style="display:inline;fill:#ff0002;fill-opacity:1;fill-rule:nonzero;stroke:none;stroke-width:2.18281245;stroke-miterlimit:4;stroke-dasharray:none;stroke-opacity:1" />
      <path
         inkscape:connector-curvature="0"
         id="rect3119"
         d="m 85.28332,176.63816 c -1.925633,0 -3.475787,2.10239 -3.475787,4.71385 v 24.93113 c -1.545294,1.10522 -2.496278,2.90128 -2.49881,4.85113 7.6e-5,3.29962 2.674977,5.97444 5.974597,5.97443 3.299619,1e-5 5.974521,-2.67481 5.974596,-5.97443 -0.0039,-1.92387 -0.934001,-3.72815 -2.498809,-4.84738 v -24.93488 c 0,-2.61146 -1.550154,-4.71385 -3.475787,-4.71385 z"
         style="display:inline;fill:none;fill-opacity:1;fill-rule:nonzero;stroke:#f4f4f4;stroke-width:2.18281245;stroke-miterlimit:4;stroke-dasharray:none;stroke-opacity:1" />
      <circle
         r="3.8715012"
         cy="211.24573"
         cx="85.283325"
         id="path3117"
         style="display:inline;fill:#ff0002;fill-opacity:1;fill-rule:nonzero;stroke:none;stroke-width:2.42478228;stroke-miterlimit:4;stroke-dasharray:none;stroke-opacity:1" />
      <rect
         ry="4.4906737e-06"
         y="195.04622"
         x="89.726212"
         height="1.4970617"
         width="1.7385232"
         id="rect6926"
         style="display:inline;fill:#f4f4f4;fill-opacity:1;fill-rule:nonzero;stroke:#f4f4f4;stroke-width:0.0873125;stroke-miterlimit:4;stroke-dasharray:none;stroke-opacity:1" />
      <rect
         style="display:inline;fill:#f4f4f4;fill-opacity:1;fill-rule:nonzero;stroke:#f4f4f4;stroke-width:0.0873125;stroke-miterlimit:4;stroke-dasharray:none;stroke-opacity:1"
         id="rect6928"
         width="1.7385232"
         height="1.4970617"
         x="89.726212"
         y="191.69795"
         ry="4.4906737e-06" />
      <rect
         ry="4.4906737e-06"
         y="188.34969"
         x="89.726212"
         height="1.4970617"
         width="1.7385232"
         id="rect6930"
         style="display:inline;fill:#f4f4f4;fill-opacity:1;fill-rule:nonzero;stroke:#f4f4f4;stroke-width:0.0873125;stroke-miterlimit:4;stroke-dasharray:none;stroke-opacity:1" />
      <rect
         style="display:inline;fill:#f4f4f4;fill-opacity:1;fill-rule:nonzero;stroke:#f4f4f4;stroke-width:0.0873125;stroke-miterlimit:4;stroke-dasharray:none;stroke-opacity:1"
         id="rect6932"
         width="1.7385232"
         height="1.4970617"
         x="89.726212"
         y="185.00142"
         ry="4.4906737e-06" />
      <rect
         ry="4.4906737e-06"
         y="181.65315"
         x="89.726212"
         height="1.4970617"
         width="1.7385232"
         id="rect6934"
         style="display:inline;fill:#f4f4f4;fill-opacity:1;fill-rule:nonzero;stroke:#f4f4f4;stroke-width:0.0873125;stroke-miterlimit:4;stroke-dasharray:none;stroke-opacity:1" />
      <rect
         style="display:inline;fill:#f4f4f4;fill-opacity:1;fill-rule:nonzero;stroke:#f4f4f4;stroke-width:0.0873125;stroke-miterlimit:4;stroke-dasharray:none;stroke-opacity:1"
         id="rect6936"
         width="1.7385232"
         height="1.4970617"
         x="89.726212"
         y="198.39449"
         ry="4.4906737e-06" />
      <rect
         ry="4.4906737e-06"
         y="201.74275"
         x="89.726212"
         height="1.4970617"
         width="1.7385232"
         id="rect6938"
         style="display:inline;fill:#f4f4f4;fill-opacity:1;fill-rule:nonzero;stroke:#f4f4f4;stroke-width:0.0873125;stroke-miterlimit:4;stroke-dasharray:none;stroke-opacity:1" />
    </g>
  </g>
</svg>
