<?xml version="1.0" encoding="UTF-8" standalone="no"?>
<!-- Created with Inkscape (http://www.inkscape.org/) -->

<svg
   xmlns:dc="http://purl.org/dc/elements/1.1/"
   xmlns:cc="http://creativecommons.org/ns#"
   xmlns:rdf="http://www.w3.org/1999/02/22-rdf-syntax-ns#"
   xmlns:svg="http://www.w3.org/2000/svg"
   xmlns="http://www.w3.org/2000/svg"
   xmlns:sodipodi="http://sodipodi.sourceforge.net/DTD/sodipodi-0.dtd"
   xmlns:inkscape="http://www.inkscape.org/namespaces/inkscape"
   width="500"
   height="500"
   viewBox="0 0 500 500"
   version="1.1"
   id="SVGRoot"
   inkscape:version="0.92.4 (5da689c313, 2019-01-14)"
   sodipodi:docname="Files.svg">
  <defs
     id="defs815" />
  <sodipodi:namedview
     id="base"
     pagecolor="#ffffff"
     bordercolor="#666666"
     borderopacity="1.0"
     inkscape:pageopacity="0.0"
     inkscape:pageshadow="2"
     inkscape:zoom="1.808"
     inkscape:cx="260.05687"
     inkscape:cy="227.87611"
     inkscape:document-units="px"
     inkscape:current-layer="layer1"
     showgrid="false"
     inkscape:grid-bbox="true"
     inkscape:pagecheckerboard="true" />
  <metadata
     id="metadata818">
    <rdf:RDF>
      <cc:Work
         rdf:about="">
        <dc:format>image/svg+xml</dc:format>
        <dc:type
           rdf:resource="http://purl.org/dc/dcmitype/StillImage" />
        <dc:title></dc:title>
      </cc:Work>
    </rdf:RDF>
    <rdf:RDF>
      <cc:Work
         rdf:about="">
        <dc:title></dc:title>
      </cc:Work>
    </rdf:RDF>
  </metadata>
  <g
     inkscape:label="Layer 1"
     inkscape:groupmode="layer"
     id="layer1"
     transform="translate(0,244)">
    <rect
       style="display:inline;fill:#d4d4d4;fill-opacity:1;fill-rule:nonzero;stroke:#d4d4d4;stroke-width:1.01260519;stroke-miterlimit:4;stroke-dasharray:none;stroke-opacity:1"
       id="rect1382"
       width="398.20688"
       height="287.12576"
       x="68.957199"
       y="-91.132622"
       ry="23.691967"
       transform="matrix(1,0,-0.3514848,0.93619359,0,0)" />
    <path
       style="fill:none;fill-opacity:1;fill-rule:nonzero;stroke:#d4d4d4;stroke-width:10;stroke-linejoin:round;stroke-miterlimit:4;stroke-dasharray:none;stroke-opacity:1"
       d="m 22.123047,82.412109 c -6.434761,0 -11.613281,5.180475 -11.613281,11.615235 V 400.44336 c 0,6.43476 5.17852,11.61328 11.613281,11.61328 H 155.41992 c 6.43476,0 11.61524,-5.17852 11.61524,-11.61328 V 205.125 c 0.54755,0.0461 1.10027,0.0742 1.66015,0.0742 h 220.68555 c 10.72459,0 19.35742,-8.63479 19.35742,-19.35938 V 138.8281 c 0,-10.72458 -8.63283,-19.35937 -19.35742,-19.35937 H 224.55814 C 195.90671,99.077719 179.2033,89.971433 168.69445,82.965397 c 0,0 -0.7557,-0.553288 -13.27453,-0.553288 z"
       transform="translate(0,-244)"
       id="rect1407"
       inkscape:connector-curvature="0"
       sodipodi:nodetypes="sssssscsssssccss" />
  </g>
</svg>
