<?xml version="1.0" encoding="UTF-8" standalone="no"?>
<!-- Created with Inkscape (http://www.inkscape.org/) -->

<svg
   xmlns:dc="http://purl.org/dc/elements/1.1/"
   xmlns:cc="http://creativecommons.org/ns#"
   xmlns:rdf="http://www.w3.org/1999/02/22-rdf-syntax-ns#"
   xmlns:svg="http://www.w3.org/2000/svg"
   xmlns="http://www.w3.org/2000/svg"
   xmlns:xlink="http://www.w3.org/1999/xlink"
   xmlns:sodipodi="http://sodipodi.sourceforge.net/DTD/sodipodi-0.dtd"
   xmlns:inkscape="http://www.inkscape.org/namespaces/inkscape"
   id="svg4655"
   version="1.1"
   viewBox="0 0 132.29166 132.29167"
   height="500"
   width="500"
   enable-background="new"
   inkscape:version="0.92.4 (5da689c313, 2019-01-14)"
   sodipodi:docname="Home.svg">
  <defs
     id="defs4649">
    <linearGradient
       inkscape:collect="always"
       id="linearGradient5387">
      <stop
         style="stop-color:#ffffff;stop-opacity:1;"
         offset="0"
         id="stop5383" />
      <stop
         style="stop-color:#ffffff;stop-opacity:0;"
         offset="1"
         id="stop5385" />
    </linearGradient>
    <linearGradient
       inkscape:collect="always"
       xlink:href="#linearGradient5387"
       id="linearGradient5389"
       x1="65.766121"
       y1="255.53543"
       x2="65.766121"
       y2="164.70831"
       gradientUnits="userSpaceOnUse"
       gradientTransform="matrix(1.0272857,0,0,1.0272857,-1.9535027,6.7588679)" />
  </defs>
  <sodipodi:namedview
     id="base"
     pagecolor="#ffffff"
     bordercolor="#666666"
     borderopacity="1.0"
     inkscape:pageopacity="0.0"
     inkscape:pageshadow="2"
     inkscape:zoom="1.742"
     inkscape:cx="252.75129"
     inkscape:cy="272.96211"
     inkscape:document-units="mm"
     inkscape:current-layer="layer1"
     showgrid="false"
     units="px"
     inkscape:pagecheckerboard="true" />
  <metadata
     id="metadata4652">
    <rdf:RDF>
      <cc:Work
         rdf:about="">
        <dc:format>image/svg+xml</dc:format>
        <dc:type
           rdf:resource="http://purl.org/dc/dcmitype/StillImage" />
        <dc:title></dc:title>
      </cc:Work>
    </rdf:RDF>
  </metadata>
  <g
     inkscape:label="Layer 1"
     inkscape:groupmode="layer"
     id="layer1"
     transform="translate(0,-164.70832)">
    <path
       inkscape:connector-curvature="0"
       d="m 68.10396,220.42779 c 0,0 14.987691,0.024 14.987691,0.024 0,0 2.366785,8.05683 2.366785,8.05683 0,0 -17.031682,-0.0276 -17.031682,-0.0276 0,0 -0.322794,-8.05329 -0.322794,-8.05329 m -19.359884,-0.031 c 0,0 14.986572,0.024 14.986572,0.024 0,0 -0.273604,8.05227 -0.273604,8.05227 0,0 -17.030238,-0.0276 -17.030238,-0.0276 0,0 2.31727,-8.04871 2.31727,-8.04871 m 38.721207,0.0622 c 0,0 14.988807,0.024 14.988807,0.024 0,0 5.0076,8.06144 5.0076,8.06144 0,0 -17.033128,-0.0276 -17.033128,-0.0276 0,0 -2.963279,-8.05789 -2.963279,-8.05789 m -58.079643,-0.0931 c 0,0 14.985452,0.024 14.985452,0.024 0,0 -2.913573,8.04768 -2.913573,8.04768 0,0 -17.02879,-0.0276 -17.02879,-0.0276 0,0 4.956911,-8.04414 4.956911,-8.04414 m 39.176629,11.49646 c 0,0 17.889826,0.0291 17.889826,0.0291 0,0 3.463566,11.79043 3.463566,11.79043 0,0 -20.881019,-0.0344 -20.881019,-0.0344 0,0 -0.472373,-11.78507 -0.472373,-11.78507 m -23.108325,-0.0375 c 0,0 17.888232,0.0291 17.888232,0.0291 0,0 -0.400388,11.78355 -0.400388,11.78355 0,0 -20.878847,-0.0344 -20.878847,-0.0344 0,0 3.391003,-11.7782 3.391003,-11.7782 m 46.218713,0.0751 c 0,0 17.891413,0.0291 17.891413,0.0291 0,0 7.32826,11.79733 7.32826,11.79733 0,0 -20.883179,-0.0344 -20.883179,-0.0344 0,0 -4.336494,-11.79197 -4.336494,-11.79197 m -69.324979,-0.11274 c 0,0 17.886635,0.0291 17.886635,0.0291 0,0 -4.263594,11.77663 -4.263594,11.77663 0,0 -20.876675,-0.0343 -20.876675,-0.0343 0,0 7.253634,-11.77131 7.253634,-11.77131 m 46.893007,17.00078 c 0,0 22.185756,0.0369 22.185756,0.0369 0,0 5.549522,18.89129 5.549522,18.89129 0,0 -26.978432,-0.0457 -26.978432,-0.0457 0,0 -0.756846,-18.88235 -0.756846,-18.88235 m -28.656845,-0.0476 c 0,0 22.183306,0.0369 22.183306,0.0369 0,0 -0.641508,18.87975 -0.641508,18.87975 0,0 -26.974807,-0.0457 -26.974807,-0.0457 0,0 5.433009,-18.87083 5.433009,-18.87083 m 57.31686,0.095 c 0,0 22.18819,0.0369 22.18819,0.0369 0,0 11.74207,18.90281 11.74207,18.90281 0,0 -26.98204,-0.0457 -26.98204,-0.0457 0,0 -6.94822,-18.89389 -6.94822,-18.89389 m -85.970537,-0.14261 c 0,0 22.18085,0.0369 22.18085,0.0369 0,0 -6.831017,18.8682 -6.831017,18.8682 0,0 -26.97118128,-0.0457 -26.97118128,-0.0457 0,0 11.62134828,-18.85928 11.62134828,-18.85928"
       style="fill:url(#linearGradient5389);fill-opacity:1;fill-rule:nonzero;stroke:none;stroke-width:0.27180263;stroke-linecap:square;stroke-linejoin:miter;stroke-miterlimit:2.4000001;stroke-dasharray:none;stroke-opacity:1"
       id="rect5308"
       inkscape:label="Bed" />
    <path
       style="display:inline;fill:#69b3e7;fill-opacity:1;fill-rule:nonzero;stroke:#69b3e7;stroke-width:3.96875;stroke-linecap:square;stroke-linejoin:miter;stroke-miterlimit:2.4000001;stroke-dasharray:none;stroke-opacity:0.99442899"
       d="m 66.145833,179.8969 c -5.862479,0 -11.188314,2.28514 -15.145845,6.00841 a 22.409881,21.581966 0 0 1 15.145845,-5.70456 22.409881,21.581966 0 0 1 15.259534,5.81308 c -3.968898,-3.78717 -9.340525,-6.11693 -15.259534,-6.11693 z m 15.259534,6.11693 c 4.220316,4.02709 6.853843,9.70248 6.853843,15.99644 0,4.05334 -1.480433,8.16902 -3.781679,12.16567 a 22.409881,21.581966 0 0 0 4.078304,-12.39356 22.409881,21.581966 0 0 0 -7.150468,-15.76855 z m 3.072164,28.16211 a 22.409881,21.581966 0 0 1 -18.331698,9.18859 22.409881,21.581966 0 0 1 -18.758545,-9.78856 c 4.491376,8.36128 12.57373,16.26179 18.454687,21.78731 6.02864,-5.58119 14.002991,-13.14182 18.635556,-21.18734 z m -37.090243,-0.59997 c -2.051931,-3.81993 -3.354832,-7.7358 -3.354832,-11.5657 0,-6.35049 2.68056,-12.07174 6.967532,-16.10496 a 22.409881,21.581966 0 0 0 -7.264157,15.87707 22.409881,21.581966 0 0 0 3.651457,11.79359 z"
       id="path5393"
       inkscape:connector-curvature="0" />
    <path
       style="display:inline;fill:#d4d4d4;fill-opacity:1;fill-rule:nonzero;stroke:#69b3e7;stroke-width:2.27832699;stroke-linecap:square;stroke-linejoin:miter;stroke-miterlimit:2.4000001;stroke-dasharray:none;stroke-opacity:0.99442899"
       d="m 62.578982,221.01096 c -4.227269,-0.75427 -8.043764,-2.71843 -11.028648,-5.67586 -2.185448,-2.16536 -3.376181,-4.21794 -4.52206,-7.79514 -0.749083,-2.33849 -0.975667,-3.95873 -0.885748,-6.33372 0.112689,-2.97638 0.75811,-5.54353 2.042969,-8.12584 2.703579,-5.43366 7.560458,-9.07503 13.909218,-10.42824 2.197623,-0.46841 5.909503,-0.46841 8.107126,0 8.17036,1.74147 13.896044,7.36893 15.632679,15.36449 0.397367,1.82951 0.39865,5.82258 0.0024,7.5183 -0.677555,2.89966 -2.305224,6.53495 -3.727093,8.32422 -2.871943,3.61404 -7.625397,6.34451 -12.457009,7.15554 -1.776351,0.29817 -5.392496,0.29626 -7.073849,-0.004 z"
       id="path5411"
       inkscape:connector-curvature="0" />
  </g>
</svg>
