<?xml version="1.0" encoding="UTF-8" standalone="no"?>
<!-- Created with Inkscape (http://www.inkscape.org/) -->

<svg
   xmlns:dc="http://purl.org/dc/elements/1.1/"
   xmlns:cc="http://creativecommons.org/ns#"
   xmlns:rdf="http://www.w3.org/1999/02/22-rdf-syntax-ns#"
   xmlns:svg="http://www.w3.org/2000/svg"
   xmlns="http://www.w3.org/2000/svg"
   xmlns:sodipodi="http://sodipodi.sourceforge.net/DTD/sodipodi-0.dtd"
   xmlns:inkscape="http://www.inkscape.org/namespaces/inkscape"
   width="500"
   height="500"
   viewBox="0 0 132.29166 132.29166"
   version="1.1"
   id="svg1372"
   inkscape:version="0.92.4 (5da689c313, 2019-01-14)"
   sodipodi:docname="Local Storage.svg">
  <defs
     id="defs1366" />
  <sodipodi:namedview
     id="base"
     pagecolor="#ffffff"
     bordercolor="#666666"
     borderopacity="1.0"
     inkscape:pageopacity="0.0"
     inkscape:pageshadow="2"
     inkscape:zoom="1.666"
     inkscape:cx="250"
     inkscape:cy="250"
     inkscape:document-units="mm"
     inkscape:current-layer="layer1"
     showgrid="false"
     units="px"
     inkscape:pagecheckerboard="true" />
  <metadata
     id="metadata1369">
    <rdf:RDF>
      <cc:Work
         rdf:about="">
        <dc:format>image/svg+xml</dc:format>
        <dc:type
           rdf:resource="http://purl.org/dc/dcmitype/StillImage" />
        <dc:title></dc:title>
      </cc:Work>
    </rdf:RDF>
  </metadata>
  <g
     inkscape:label="Layer 1"
     inkscape:groupmode="layer"
     id="layer1"
     transform="translate(-19.654762,-18.809534)">
    <path
       style="fill:#f0f0f0;fill-opacity:1;fill-rule:nonzero;stroke:none;stroke-width:0;stroke-miterlimit:4;stroke-dasharray:none;stroke-opacity:1"
       d="m 22.808594,102.29883 c -9.643458,0 -17.4062503,7.76474 -17.4062502,17.4082 v 81.37305 c 0,9.64346 7.7627922,17.4082 17.4062502,17.4082 H 477.46484 c 9.64346,0 17.40625,-7.76474 17.40625,-17.4082 v -81.37305 c 0,-9.64346 -7.76279,-17.4082 -17.40625,-17.4082 z m 371.548826,59.16601 a 14.405762,14.405762 0 0 1 14.40625,14.40625 14.405762,14.405762 0 0 1 -14.40625,14.4043 14.405762,14.405762 0 0 1 -14.40625,-14.4043 14.405762,14.405762 0 0 1 14.40625,-14.40625 z m 56.42383,0 a 14.405762,14.405762 0 0 1 14.4043,14.40625 14.405762,14.405762 0 0 1 -14.4043,14.4043 14.405762,14.405762 0 0 1 -14.40625,-14.4043 14.405762,14.405762 0 0 1 14.40625,-14.40625 z"
       transform="matrix(0.26458333,0,0,0.26458333,19.654762,18.809534)"
       id="rect1932"
       inkscape:connector-curvature="0" />
    <path
       style="fill:#f0f0f0;fill-opacity:1;fill-rule:nonzero;stroke:none;stroke-width:0;stroke-miterlimit:4;stroke-dasharray:none;stroke-opacity:1"
       d="m 22.808594,240.05078 c -9.643458,0 -17.4062503,7.76475 -17.4062502,17.4082 v 81.37305 c 0,9.64346 7.7627922,17.4082 17.4062502,17.4082 H 477.46484 c 9.64346,0 17.40625,-7.76474 17.40625,-17.4082 v -81.37305 c 0,-9.64345 -7.76279,-17.4082 -17.40625,-17.4082 z M 394.35742,299.2168 a 14.405762,14.405762 0 0 1 14.40625,14.40625 14.405762,14.405762 0 0 1 -14.40625,14.40429 14.405762,14.405762 0 0 1 -14.40625,-14.40429 14.405762,14.405762 0 0 1 14.40625,-14.40625 z m 56.42383,0 a 14.405762,14.405762 0 0 1 14.4043,14.40625 14.405762,14.405762 0 0 1 -14.4043,14.40429 14.405762,14.405762 0 0 1 -14.40625,-14.40429 14.405762,14.405762 0 0 1 14.40625,-14.40625 z"
       transform="matrix(0.26458333,0,0,0.26458333,19.654762,18.809534)"
       id="rect1938"
       inkscape:connector-curvature="0" />
  </g>
</svg>
