<?xml version="1.0" encoding="UTF-8" standalone="no"?>
<!-- Created with Inkscape (http://www.inkscape.org/) -->

<svg
   xmlns:dc="http://purl.org/dc/elements/1.1/"
   xmlns:cc="http://creativecommons.org/ns#"
   xmlns:rdf="http://www.w3.org/1999/02/22-rdf-syntax-ns#"
   xmlns:svg="http://www.w3.org/2000/svg"
   xmlns="http://www.w3.org/2000/svg"
   xmlns:sodipodi="http://sodipodi.sourceforge.net/DTD/sodipodi-0.dtd"
   xmlns:inkscape="http://www.inkscape.org/namespaces/inkscape"
   width="500"
   height="500"
   viewBox="0 0 132.29166 132.29167"
   version="1.1"
   id="svg8"
   inkscape:version="0.92.4 (5da689c313, 2019-01-14)"
   sodipodi:docname="printer.svg">
  <defs
     id="defs2" />
  <sodipodi:namedview
     id="base"
     pagecolor="#ffffff"
     bordercolor="#666666"
     borderopacity="1.0"
     inkscape:pageopacity="0"
     inkscape:pageshadow="2"
     inkscape:zoom="1.5236477"
     inkscape:cx="259.75568"
     inkscape:cy="229.88348"
     inkscape:document-units="mm"
     inkscape:current-layer="layer1"
     showgrid="false"
     units="px"
     inkscape:pagecheckerboard="true" />
  <metadata
     id="metadata5">
    <rdf:RDF>
      <cc:Work
         rdf:about="">
        <dc:format>image/svg+xml</dc:format>
        <dc:type
           rdf:resource="http://purl.org/dc/dcmitype/StillImage" />
        <dc:title></dc:title>
      </cc:Work>
    </rdf:RDF>
  </metadata>
  <g
     inkscape:label="Layer 1"
     inkscape:groupmode="layer"
     id="layer1"
     transform="translate(0,-164.70832)">
    <path
       style="fill:#d4d4d4;fill-opacity:0;stroke:#d4d4d4;stroke-width:2.02275109;stroke-miterlimit:10;stroke-dasharray:none;stroke-opacity:1"
       d="m 32.674567,167.72594 h 66.942707 c 3.782436,0 6.827496,3.04507 6.827496,6.82751 0,0 5.28256,36.62312 5.31029,54.98759 0.0291,19.30358 -5.31029,57.81011 -5.31029,57.81011 -0.22297,3.77586 -3.04506,6.82752 -6.827496,6.82752 H 32.674567 c -3.78244,0 -6.827509,-3.04508 -6.827509,-6.82752 0,0 -5.355755,-39.1225 -5.310284,-58.56872 0.04269,-18.25577 5.310284,-54.22898 5.310284,-54.22898 0.288159,-3.77145 3.045069,-6.82751 6.827509,-6.82751 z"
       id="rect1366"
       inkscape:connector-curvature="0"
       sodipodi:nodetypes="sssssssssss" />
    <rect
       style="fill:#ffffff;fill-opacity:0;stroke:#f0f0f0;stroke-width:0.52916664;stroke-miterlimit:10;stroke-dasharray:none;stroke-opacity:1"
       id="rect1368"
       width="1.5119048"
       height="5.2916665"
       x="155.72618"
       y="456.50595" />
    <path
       style="fill:#d4d4d4;fill-opacity:0;stroke:#d4d4d4;stroke-width:4.39009953;stroke-miterlimit:10;stroke-dasharray:none;stroke-opacity:1"
       d="M 42.458409,181.01767 H 89.83325 c 4.199305,0 7.579974,3.47363 7.579974,7.78842 0,0 3.031996,28.55753 3.031996,42.64158 0,14.08406 -3.031996,41.86276 -3.031996,41.86276 0,4.31479 -3.380669,7.78841 -7.579974,7.78841 H 42.458409 c -4.199306,0 -7.579975,-3.47362 -7.579975,-7.78841 0,0 -3.03199,-28.55754 -3.03199,-42.64159 0,-14.08406 3.03199,-41.86275 3.03199,-41.86275 0,-4.31479 3.380669,-7.78842 7.579975,-7.78842 z"
       id="rect1371"
       inkscape:connector-curvature="0"
       sodipodi:nodetypes="sssssssssss" />
    <path
       style="fill:#d4d4d4;fill-opacity:1;stroke:none;stroke-width:0.29938224;stroke-linecap:butt;stroke-linejoin:miter;stroke-miterlimit:4;stroke-dasharray:none;stroke-opacity:1"
       mask="none"
       clip-path="none"
       d="m 33.910247,257.2356 1.137608,14.65946 4.171792,7.33034 h 54.989989 l 3.413385,-7.33034 0.758399,-14.65946 z m 22.564802,5.09027 h 19.151414 c 0.52525,0 0.948568,0.45393 0.948568,1.01793 v 11.40209 c 0,0.56399 -0.423318,1.01791 -0.948568,1.01791 H 56.475049 c -0.525252,0 -0.948006,-0.45392 -0.948006,-1.01791 V 263.3438 c 0,-0.564 0.422754,-1.01793 0.948006,-1.01793 z"
       id="path6534"
       inkscape:connector-curvature="0" />
  </g>
</svg>
