<?xml version="1.0" encoding="UTF-8" standalone="no"?>
<!-- Created with Inkscape (http://www.inkscape.org/) -->

<svg
   xmlns:dc="http://purl.org/dc/elements/1.1/"
   xmlns:cc="http://creativecommons.org/ns#"
   xmlns:rdf="http://www.w3.org/1999/02/22-rdf-syntax-ns#"
   xmlns:svg="http://www.w3.org/2000/svg"
   xmlns="http://www.w3.org/2000/svg"
   xmlns:sodipodi="http://sodipodi.sourceforge.net/DTD/sodipodi-0.dtd"
   xmlns:inkscape="http://www.inkscape.org/namespaces/inkscape"
   width="500"
   height="500"
   viewBox="0 0 132.29166 132.29167"
   version="1.1"
   id="svg930"
   inkscape:version="0.92.4 (5da689c313, 2019-01-14)"
   sodipodi:docname="Up Arrow.svg">
  <defs
     id="defs924" />
  <sodipodi:namedview
     id="base"
     pagecolor="#ffffff"
     bordercolor="#666666"
     borderopacity="1.0"
     inkscape:pageopacity="0.0"
     inkscape:pageshadow="2"
     inkscape:zoom="1.742"
     inkscape:cx="250"
     inkscape:cy="250"
     inkscape:document-units="mm"
     inkscape:current-layer="layer1"
     showgrid="false"
     inkscape:pagecheckerboard="true"
     units="px" />
  <metadata
     id="metadata927">
    <rdf:RDF>
      <cc:Work
         rdf:about="">
        <dc:format>image/svg+xml</dc:format>
        <dc:type
           rdf:resource="http://purl.org/dc/dcmitype/StillImage" />
        <dc:title></dc:title>
      </cc:Work>
    </rdf:RDF>
  </metadata>
  <g
     inkscape:label="Layer 1"
     inkscape:groupmode="layer"
     id="layer1"
     transform="translate(0,-164.70832)">
    <path
       style="fill:#69a9e7;fill-opacity:0.99721452;fill-rule:nonzero;stroke:#69a9e7;stroke-width:0.99999994;stroke-linecap:square;stroke-linejoin:miter;stroke-miterlimit:4;stroke-dasharray:none;stroke-opacity:1"
       d="M 250,4.3046875 A 245.69461,245.69461 0 0 0 4.3046875,250 245.69461,245.69461 0 0 0 250,495.69531 245.69461,245.69461 0 0 0 495.69531,250 245.69461,245.69461 0 0 0 250,4.3046875 Z m 2.01172,184.1972625 c 2.43167,0 4.86358,0.92999 6.72656,2.79297 l 113.27149,113.27344 c 1.91948,1.91947 2.84535,4.44081 2.78711,6.94531 -0.73777,-0.18217 -1.50511,-0.28906 -2.30079,-0.28906 H 125.74805 c 0.38812,-0.63598 0.84919,-1.24176 1.40039,-1.79297 L 245.28516,191.29492 c 1.86299,-1.86298 4.29488,-2.79297 6.72656,-2.79297 z"
       transform="matrix(0.26458333,0,0,0.26458333,0,164.70832)"
       id="path1475"
       inkscape:connector-curvature="0" />
    <path
       style="display:none;fill:#04a9e7;fill-opacity:0.99721452;fill-rule:nonzero;stroke:#69a9e7;stroke-width:0.36967388;stroke-linecap:square;stroke-linejoin:miter;stroke-miterlimit:4;stroke-dasharray:none;stroke-opacity:1"
       d="m 33.12691,214.57863 c -0.01541,0.66265 0.229352,1.33003 0.737216,1.83789 l 29.969844,29.96985 c 0.985829,0.98583 2.573521,0.98583 3.559353,0 L 98.6504,215.12929 c 0.145837,-0.14584 0.267848,-0.30584 0.370538,-0.47411 H 33.735466 c -0.210522,0 -0.413356,-0.0283 -0.608556,-0.0765 z"
       id="rect1477"
       inkscape:connector-curvature="0" />
  </g>
</svg>
