<?xml version="1.0" encoding="UTF-8" standalone="no"?>
<!-- Created with Inkscape (http://www.inkscape.org/) -->

<svg
   xmlns:dc="http://purl.org/dc/elements/1.1/"
   xmlns:cc="http://creativecommons.org/ns#"
   xmlns:rdf="http://www.w3.org/1999/02/22-rdf-syntax-ns#"
   xmlns:svg="http://www.w3.org/2000/svg"
   xmlns="http://www.w3.org/2000/svg"
   xmlns:sodipodi="http://sodipodi.sourceforge.net/DTD/sodipodi-0.dtd"
   xmlns:inkscape="http://www.inkscape.org/namespaces/inkscape"
   width="500"
   height="500"
   viewBox="0 0 132.29166 132.29167"
   version="1.1"
   id="svg824"
   enable-background="new"
   inkscape:version="0.92.4 (5da689c313, 2019-01-14)"
   sodipodi:docname="USB Storage.svg">
  <defs
     id="defs818" />
  <sodipodi:namedview
     id="base"
     pagecolor="#ffffff"
     bordercolor="#666666"
     borderopacity="1.0"
     inkscape:pageopacity="0.0"
     inkscape:pageshadow="2"
     inkscape:zoom="1.666"
     inkscape:cx="140.15606"
     inkscape:cy="250"
     inkscape:document-units="px"
     inkscape:current-layer="layer1"
     showgrid="false"
     units="px"
     inkscape:pagecheckerboard="true" />
  <metadata
     id="metadata821">
    <rdf:RDF>
      <cc:Work
         rdf:about="">
        <dc:format>image/svg+xml</dc:format>
        <dc:type
           rdf:resource="http://purl.org/dc/dcmitype/StillImage" />
        <dc:title></dc:title>
      </cc:Work>
    </rdf:RDF>
  </metadata>
  <g
     inkscape:label="Layer 1"
     inkscape:groupmode="layer"
     id="layer1"
     transform="translate(0,-164.70831)">
    <circle
       style="fill:none;fill-opacity:0;fill-rule:nonzero;stroke:#d4d4d4;stroke-width:7.00008116;stroke-miterlimit:4;stroke-dasharray:none;stroke-opacity:1"
       id="path1382"
       cx="66.145836"
       cy="192.37569"
       r="23.311758" />
    <path
       style="fill:#d4d4d4;fill-opacity:1;fill-rule:nonzero;stroke:none;stroke-width:0;stroke-miterlimit:4;stroke-dasharray:none;stroke-opacity:1"
       d="M 148.94922,106.24219 V 497.29883 H 351.05078 V 106.24219 H 338.02344 A 88.107433,88.107433 0 0 1 250,192.67773 88.107433,88.107433 0 0 1 161.95117,106.24219 Z m 101.88867,182.53125 h 9.38672 c 10.24,0 17.66406,5.6314 17.66406,15.35937 0,4.69334 -2.04714,8.61996 -5.11914,10.66797 h 4.0957 v 10.49414 h -60.75781 v -10.49414 h 22.1875 c -3.072,-2.04801 -5.11914,-5.97463 -5.11914,-10.66797 0,-9.72797 7.42211,-15.35937 17.66211,-15.35937 z m 2.30469,10.49609 c -7.25333,0 -10.92188,2.30402 -10.92188,8.27735 0,3.15733 1.79203,5.7179 4.69336,7.2539 h 17.23633 c 2.90134,-1.536 4.69336,-4.09657 4.69336,-7.2539 0,-5.97333 -3.66854,-8.27735 -10.92187,-8.27735 z m 11.34961,34.24609 c 7.76533,0 13.39648,6.14478 13.39648,16.38477 0,9.47199 -4.77842,16.21222 -13.48242,18.60156 l -1.53516,-10.24023 c 4.352,-1.36532 6.40039,-4.26534 6.40039,-8.36133 0,-3.66932 -1.96404,-5.97461 -4.60937,-5.97461 -2.73067,0 -4.35054,1.79205 -5.0332,5.80274 l -0.6836,3.83984 c -1.70667,9.38665 -5.88804,13.82422 -12.9707,13.82422 -7.25334,0 -12.79883,-5.97257 -12.79883,-15.61524 0,-8.70398 4.52103,-15.18891 12.45703,-17.32226 l 1.45117,10.06836 c -3.15733,0.68266 -5.29101,3.41403 -5.29101,6.99804 0,3.32799 1.79231,5.375 4.18164,5.375 2.56,0 3.92536,-2.04731 4.69336,-5.97265 l 0.68359,-3.83985 c 1.70667,-9.64263 5.80196,-13.56836 13.14063,-13.56836 z m -30.29297,43.17969 h 42.66601 v 10.4961 h -4.77929 c 3.328,2.13335 5.80273,6.22959 5.80273,11.34961 0,9.38664 -6.65425,14.76367 -17.40625,14.76367 h -26.2832 v -10.4961 h 24.74609 c 6.48534,0 9.89844,-2.13499 9.89844,-7.68164 0,-3.24268 -2.13293,-6.48489 -5.46094,-7.93554 h -29.18359 z"
       transform="matrix(0.26458333,0,0,0.26458333,0,164.70831)"
       id="rect1384"
       inkscape:connector-curvature="0" />
    <g
       aria-label="usb"
       transform="rotate(-90)"
       style="font-style:normal;font-variant:normal;font-weight:normal;font-stretch:normal;font-size:22.57777786px;line-height:1.25;font-family:'Core Sans D 55 Bold';-inkscape-font-specification:'Core Sans D 55 Bold, Normal';font-variant-ligatures:normal;font-variant-caps:normal;font-variant-numeric:normal;font-feature-settings:normal;text-align:start;letter-spacing:0px;word-spacing:0px;writing-mode:lr-tb;text-anchor:start;fill:#000000;fill-opacity:1;stroke:none;stroke-width:0.26458332"
       id="text1404" />
  </g>
</svg>
