<?xml version="1.0" encoding="UTF-8" standalone="no"?>
<!-- Created with Inkscape (http://www.inkscape.org/) -->

<svg
   xmlns:dc="http://purl.org/dc/elements/1.1/"
   xmlns:cc="http://creativecommons.org/ns#"
   xmlns:rdf="http://www.w3.org/1999/02/22-rdf-syntax-ns#"
   xmlns:svg="http://www.w3.org/2000/svg"
   xmlns="http://www.w3.org/2000/svg"
   xmlns:xlink="http://www.w3.org/1999/xlink"
   xmlns:sodipodi="http://sodipodi.sourceforge.net/DTD/sodipodi-0.dtd"
   xmlns:inkscape="http://www.inkscape.org/namespaces/inkscape"
   id="svg4655"
   version="1.1"
   viewBox="0 0 132.29166 132.29167"
   height="500"
   width="500"
   inkscape:version="0.92.4 (5da689c313, 2019-01-14)"
   sodipodi:docname="Y- Icon.svg"
   enable-background="new">
  <defs
     id="defs4649">
    <marker
       inkscape:stockid="TriangleOutS"
       orient="auto"
       refY="0.0"
       refX="0.0"
       id="marker1164"
       style="overflow:visible"
       inkscape:isstock="true">
      <path
         id="path1049"
         d="M 5.77,0.0 L -2.88,5.0 L -2.88,-5.0 L 5.77,0.0 z "
         style="fill-rule:evenodd;stroke:#000000;stroke-width:1pt;stroke-opacity:1;fill:#000000;fill-opacity:1"
         transform="scale(0.2)" />
    </marker>
    <marker
       inkscape:stockid="TriangleOutS"
       orient="auto"
       refY="0.0"
       refX="0.0"
       id="marker2717"
       style="overflow:visible"
       inkscape:isstock="true">
      <path
         id="path2715"
         d="M 5.77,0.0 L -2.88,5.0 L -2.88,-5.0 L 5.77,0.0 z "
         style="fill-rule:evenodd;stroke:#ffffff;stroke-width:1pt;stroke-opacity:1;fill:#ffffff;fill-opacity:1"
         transform="scale(0.2)" />
    </marker>
    <linearGradient
       inkscape:collect="always"
       id="linearGradient2707">
      <stop
         style="stop-color:#d4d4d4;stop-opacity:1;"
         offset="0"
         id="stop2703" />
      <stop
         style="stop-color:#d4d4d4;stop-opacity:0;"
         offset="1"
         id="stop2705" />
    </linearGradient>
    <marker
       inkscape:stockid="TriangleOutS"
       orient="auto"
       refY="0.0"
       refX="0.0"
       id="TriangleOutS"
       style="overflow:visible"
       inkscape:isstock="true">
      <path
         id="path978"
         d="M 5.77,0.0 L -2.88,5.0 L -2.88,-5.0 L 5.77,0.0 z "
         style="fill-rule:evenodd;stroke:#ffffff;stroke-width:1pt;stroke-opacity:1;fill:#ffffff;fill-opacity:1"
         transform="scale(0.2)" />
    </marker>
    <marker
       inkscape:stockid="TriangleOutL"
       orient="auto"
       refY="0.0"
       refX="0.0"
       id="TriangleOutL"
       style="overflow:visible"
       inkscape:isstock="true">
      <path
         id="path972"
         d="M 5.77,0.0 L -2.88,5.0 L -2.88,-5.0 L 5.77,0.0 z "
         style="fill-rule:evenodd;stroke:#000000;stroke-width:1pt;stroke-opacity:1;fill:#000000;fill-opacity:1"
         transform="scale(0.8)" />
    </marker>
    <marker
       inkscape:stockid="Arrow2Send"
       orient="auto"
       refY="0.0"
       refX="0.0"
       id="Arrow2Send"
       style="overflow:visible;"
       inkscape:isstock="true">
      <path
         id="path863"
         style="fill-rule:evenodd;stroke-width:0.625;stroke-linejoin:round;stroke:#000000;stroke-opacity:1;fill:#000000;fill-opacity:1"
         d="M 8.7185878,4.0337352 L -2.2072895,0.016013256 L 8.7185884,-4.0017078 C 6.9730900,-1.6296469 6.9831476,1.6157441 8.7185878,4.0337352 z "
         transform="scale(0.3) rotate(180) translate(-2.3,0)" />
    </marker>
    <marker
       inkscape:stockid="Arrow2Lend"
       orient="auto"
       refY="0.0"
       refX="0.0"
       id="Arrow2Lend"
       style="overflow:visible;"
       inkscape:isstock="true">
      <path
         id="path851"
         style="fill-rule:evenodd;stroke-width:0.625;stroke-linejoin:round;stroke:#000000;stroke-opacity:1;fill:#000000;fill-opacity:1"
         d="M 8.7185878,4.0337352 L -2.2072895,0.016013256 L 8.7185884,-4.0017078 C 6.9730900,-1.6296469 6.9831476,1.6157441 8.7185878,4.0337352 z "
         transform="scale(1.1) rotate(180) translate(1,0)" />
    </marker>
    <linearGradient
       inkscape:collect="always"
       xlink:href="#linearGradient2707"
       id="linearGradient2709"
       x1="66.221779"
       y1="267.8381"
       x2="66.221779"
       y2="129.62292"
       gradientUnits="userSpaceOnUse" />
  </defs>
  <sodipodi:namedview
     id="base"
     pagecolor="#ffffff"
     bordercolor="#666666"
     borderopacity="1.0"
     inkscape:pageopacity="0.0"
     inkscape:pageshadow="2"
     inkscape:zoom="1.742"
     inkscape:cx="250"
     inkscape:cy="250"
     inkscape:document-units="mm"
     inkscape:current-layer="layer1"
     showgrid="false"
     units="px"
     inkscape:pagecheckerboard="true" />
  <metadata
     id="metadata4652">
    <rdf:RDF>
      <cc:Work
         rdf:about="">
        <dc:format>image/svg+xml</dc:format>
        <dc:type
           rdf:resource="http://purl.org/dc/dcmitype/StillImage" />
        <dc:title></dc:title>
      </cc:Work>
    </rdf:RDF>
  </metadata>
  <g
     inkscape:label="Layer 1"
     inkscape:groupmode="layer"
     id="layer1"
     transform="translate(0,-164.70832)">
    <path
       inkscape:connector-curvature="0"
       d="m 68.10396,220.42779 c 0,0 14.987691,0.024 14.987691,0.024 0,0 2.366785,8.05683 2.366785,8.05683 0,0 -17.031682,-0.0276 -17.031682,-0.0276 0,0 -0.322794,-8.05329 -0.322794,-8.05329 m -19.359884,-0.031 c 0,0 14.986572,0.024 14.986572,0.024 0,0 -0.273604,8.05227 -0.273604,8.05227 0,0 -17.030238,-0.0276 -17.030238,-0.0276 0,0 2.31727,-8.04871 2.31727,-8.04871 m 38.721207,0.0622 c 0,0 14.988807,0.024 14.988807,0.024 0,0 5.0076,8.06144 5.0076,8.06144 0,0 -17.033128,-0.0276 -17.033128,-0.0276 0,0 -2.963279,-8.05789 -2.963279,-8.05789 m -58.079643,-0.0931 c 0,0 14.985452,0.024 14.985452,0.024 0,0 -2.913573,8.04768 -2.913573,8.04768 0,0 -17.02879,-0.0276 -17.02879,-0.0276 0,0 4.956911,-8.04414 4.956911,-8.04414 m 39.176629,11.49646 c 0,0 17.889826,0.0291 17.889826,0.0291 0,0 3.463566,11.79043 3.463566,11.79043 0,0 -20.881019,-0.0344 -20.881019,-0.0344 0,0 -0.472373,-11.78507 -0.472373,-11.78507 m -23.108325,-0.0375 c 0,0 17.888232,0.0291 17.888232,0.0291 0,0 -0.400388,11.78355 -0.400388,11.78355 0,0 -20.878847,-0.0344 -20.878847,-0.0344 0,0 3.391003,-11.7782 3.391003,-11.7782 m 46.218713,0.0751 c 0,0 17.891413,0.0291 17.891413,0.0291 0,0 7.32826,11.79733 7.32826,11.79733 0,0 -20.883179,-0.0344 -20.883179,-0.0344 0,0 -4.336494,-11.79197 -4.336494,-11.79197 m -69.324979,-0.11274 c 0,0 17.886635,0.0291 17.886635,0.0291 0,0 -4.263594,11.77663 -4.263594,11.77663 0,0 -20.876675,-0.0343 -20.876675,-0.0343 0,0 7.253634,-11.77131 7.253634,-11.77131 m 46.893007,17.00078 c 0,0 22.185756,0.0369 22.185756,0.0369 0,0 5.549522,18.89129 5.549522,18.89129 0,0 -26.978432,-0.0457 -26.978432,-0.0457 0,0 -0.756846,-18.88235 -0.756846,-18.88235 m -28.656845,-0.0476 c 0,0 22.183306,0.0369 22.183306,0.0369 0,0 -0.641508,18.87975 -0.641508,18.87975 0,0 -26.974807,-0.0457 -26.974807,-0.0457 0,0 5.433009,-18.87083 5.433009,-18.87083 m 57.31686,0.095 c 0,0 22.18819,0.0369 22.18819,0.0369 0,0 11.74207,18.90281 11.74207,18.90281 0,0 -26.98204,-0.0457 -26.98204,-0.0457 0,0 -6.94822,-18.89389 -6.94822,-18.89389 m -85.970537,-0.14261 c 0,0 22.18085,0.0369 22.18085,0.0369 0,0 -6.831017,18.8682 -6.831017,18.8682 0,0 -26.97118128,-0.0457 -26.97118128,-0.0457 0,0 11.62134828,-18.85928 11.62134828,-18.85928"
       style="fill:url(#linearGradient2709);fill-opacity:1;fill-rule:nonzero;stroke:none;stroke-width:0.27180263;stroke-linecap:square;stroke-linejoin:miter;stroke-miterlimit:2.4000001;stroke-dasharray:none;stroke-opacity:1"
       id="rect5308"
       inkscape:label="Bed" />
    <g
       id="g824"
       inkscape:label="Marker"
       style="display:none">
      <path
         inkscape:connector-curvature="0"
         id="path5393"
         d="m 66.145833,179.8969 c -5.862479,0 -11.188314,2.28514 -15.145845,6.00841 a 22.409881,21.581966 0 0 1 15.145845,-5.70456 22.409881,21.581966 0 0 1 15.259534,5.81308 c -3.968898,-3.78717 -9.340525,-6.11693 -15.259534,-6.11693 z m 15.259534,6.11693 c 4.220316,4.02709 6.853843,9.70248 6.853843,15.99644 0,4.05334 -1.480433,8.16902 -3.781679,12.16567 a 22.409881,21.581966 0 0 0 4.078304,-12.39356 22.409881,21.581966 0 0 0 -7.150468,-15.76855 z m 3.072164,28.16211 a 22.409881,21.581966 0 0 1 -18.331698,9.18859 22.409881,21.581966 0 0 1 -18.758545,-9.78856 c 4.491376,8.36128 12.57373,16.26179 18.454687,21.78731 6.02864,-5.58119 14.002991,-13.14182 18.635556,-21.18734 z m -37.090243,-0.59997 c -2.051931,-3.81993 -3.354832,-7.7358 -3.354832,-11.5657 0,-6.35049 2.68056,-12.07174 6.967532,-16.10496 a 22.409881,21.581966 0 0 0 -7.264157,15.87707 22.409881,21.581966 0 0 0 3.651457,11.79359 z"
         style="display:inline;fill:#69b3e7;fill-opacity:1;fill-rule:nonzero;stroke:#69b3e7;stroke-width:3.96875;stroke-linecap:square;stroke-linejoin:miter;stroke-miterlimit:2.4000001;stroke-dasharray:none;stroke-opacity:0.99442899" />
      <path
         inkscape:connector-curvature="0"
         id="path5411"
         d="m 62.578982,221.01096 c -4.227269,-0.75427 -8.043764,-2.71843 -11.028648,-5.67586 -2.185448,-2.16536 -3.376181,-4.21794 -4.52206,-7.79514 -0.749083,-2.33849 -0.975667,-3.95873 -0.885748,-6.33372 0.112689,-2.97638 0.75811,-5.54353 2.042969,-8.12584 2.703579,-5.43366 7.560458,-9.07503 13.909218,-10.42824 2.197623,-0.46841 5.909503,-0.46841 8.107126,0 8.17036,1.74147 13.896044,7.36893 15.632679,15.36449 0.397367,1.82951 0.39865,5.82258 0.0024,7.5183 -0.677555,2.89966 -2.305224,6.53495 -3.727093,8.32422 -2.871943,3.61404 -7.625397,6.34451 -12.457009,7.15554 -1.776351,0.29817 -5.392496,0.29626 -7.073849,-0.004 z"
         style="display:inline;fill:#d4d4d4;fill-opacity:1;fill-rule:nonzero;stroke:#69b3e7;stroke-width:2.27832699;stroke-linecap:square;stroke-linejoin:miter;stroke-miterlimit:2.4000001;stroke-dasharray:none;stroke-opacity:0.99442899" />
    </g>
    <g
       id="g2668"
       transform="matrix(-0.74490781,0,0,1.0630492,110.97812,-22.262004)"
       inkscape:label="Horizontal Arrow"
       style="display:none">
      <path
         inkscape:connector-curvature="0"
         id="path828"
         d="m 23.970794,229.24271 c 0,0 -11.015404,17.78663 -11.015404,17.78663 0,0 71.252856,0.30959 71.252856,0.30959 0,0 -3.784528,-17.88446 -3.784528,-17.88446 0,0 -56.452924,-0.21176 -56.452924,-0.21176"
         style="color:#000000;font-style:normal;font-variant:normal;font-weight:normal;font-stretch:normal;font-size:medium;line-height:normal;font-family:sans-serif;font-variant-ligatures:normal;font-variant-position:normal;font-variant-caps:normal;font-variant-numeric:normal;font-variant-alternates:normal;font-feature-settings:normal;text-indent:0;text-align:start;text-decoration:none;text-decoration-line:none;text-decoration-style:solid;text-decoration-color:#000000;letter-spacing:normal;word-spacing:normal;text-transform:none;writing-mode:lr-tb;direction:ltr;text-orientation:mixed;dominant-baseline:auto;baseline-shift:baseline;text-anchor:start;white-space:normal;shape-padding:0;clip-rule:nonzero;display:inline;overflow:visible;visibility:visible;opacity:1;isolation:auto;mix-blend-mode:normal;color-interpolation:sRGB;color-interpolation-filters:linearRGB;solid-color:#000000;solid-opacity:1;vector-effect:none;fill:#ffffff;fill-opacity:1;fill-rule:nonzero;stroke:none;stroke-width:12.39278889;stroke-linecap:butt;stroke-linejoin:miter;stroke-miterlimit:1;stroke-dasharray:none;stroke-dashoffset:0;stroke-opacity:1;color-rendering:auto;image-rendering:auto;shape-rendering:auto;text-rendering:auto;enable-background:accumulate" />
      <path
         inkscape:connector-curvature="0"
         id="path2674"
         d="m 107.20981,237.45903 c 0,0 -36.55323,22.80141 -36.55323,22.80141 0,0 -1.750728,-37.25652 -1.750728,-37.25652 0,0 38.303958,14.45511 38.303958,14.45511"
         style="fill:#ffffff;fill-opacity:1;fill-rule:evenodd;stroke:#ffffff;stroke-width:0.29732713;stroke-linecap:square;stroke-miterlimit:1;stroke-dasharray:none;stroke-opacity:1" />
    </g>
    <path
       style="display:none;fill:#d4d4d4;fill-opacity:0.24233985;fill-rule:nonzero;stroke:#ffffff;stroke-width:0.26458332;stroke-linecap:square;stroke-linejoin:miter;stroke-miterlimit:1;stroke-dasharray:none;stroke-opacity:1"
       d="m 0.3088147,267.55264 29.0768263,-47.1869 73.068449,0.11715 29.37687,47.29255 z"
       id="path2711"
       inkscape:connector-curvature="0"
       inkscape:label="Trapazoid" />
    <g
       id="g3367"
       style="display:none;stroke-width:0.26458332;stroke-miterlimit:1;stroke-dasharray:none"
       transform="matrix(0.78696166,0,0,0.78696166,14.207056,36.07224)"
       inkscape:label="Up Arrow">
      <path
         inkscape:connector-curvature="0"
         id="path2713"
         d="m 47.057772,236.60041 c 0,0 -7.702007,31.01838 -7.702007,31.01838 0,0 53.418629,0.0905 53.418629,0.0905 0,0 -7.894177,-31.04706 -7.894177,-31.04706 0,0 -37.822445,-0.0618 -37.822445,-0.0618"
         style="color:#000000;font-style:normal;font-variant:normal;font-weight:normal;font-stretch:normal;font-size:medium;line-height:normal;font-family:sans-serif;font-variant-ligatures:normal;font-variant-position:normal;font-variant-caps:normal;font-variant-numeric:normal;font-variant-alternates:normal;font-feature-settings:normal;text-indent:0;text-align:start;text-decoration:none;text-decoration-line:none;text-decoration-style:solid;text-decoration-color:#000000;letter-spacing:normal;word-spacing:normal;text-transform:none;writing-mode:lr-tb;direction:ltr;text-orientation:mixed;dominant-baseline:auto;baseline-shift:baseline;text-anchor:start;white-space:normal;shape-padding:0;clip-rule:nonzero;display:inline;overflow:visible;visibility:visible;opacity:1;isolation:auto;mix-blend-mode:normal;color-interpolation:sRGB;color-interpolation-filters:linearRGB;solid-color:#000000;solid-opacity:1;vector-effect:none;fill:#ffffff;fill-opacity:1;fill-rule:nonzero;stroke:none;stroke-width:0.26458332;stroke-linecap:butt;stroke-linejoin:miter;stroke-miterlimit:1;stroke-dasharray:none;stroke-dashoffset:0;stroke-opacity:1;color-rendering:auto;image-rendering:auto;shape-rendering:auto;text-rendering:auto;enable-background:accumulate" />
      <path
         inkscape:connector-curvature="0"
         id="path3373"
         d="m 65.924891,222.90995 c 0,0 42.632029,23.21583 42.632029,23.21583 0,0 -85.115726,-0.14065 -85.115726,-0.14065 0,0 42.483697,-23.07518 42.483697,-23.07518"
         style="fill:#ffffff;fill-opacity:1;fill-rule:evenodd;stroke:#ffffff;stroke-width:0.26458332;stroke-miterlimit:1;stroke-dasharray:none;stroke-opacity:1" />
    </g>
    <g
       id="g2372"
       style="fill:#ffffff;fill-opacity:1;stroke:none;stroke-width:0.26458332;stroke-miterlimit:1;stroke-dasharray:none;stroke-opacity:1"
       transform="matrix(0.82407917,0,0,0.82407917,11.784657,23.432678)"
       inkscape:label="Down Arrow">
      <path
         inkscape:connector-curvature="0"
         id="path899"
         d="m 51.080132,220.40052 c 0,0 -5.498668,22.14463 -5.498668,22.14463 0,0 40.806503,0.0672 40.806503,0.0672 0,0 -5.634177,-22.16421 -5.634177,-22.16421 0,0 -29.673658,-0.0476 -29.673658,-0.0476"
         style="color:#000000;font-style:normal;font-variant:normal;font-weight:normal;font-stretch:normal;font-size:medium;line-height:normal;font-family:sans-serif;font-variant-ligatures:normal;font-variant-position:normal;font-variant-caps:normal;font-variant-numeric:normal;font-variant-alternates:normal;font-feature-settings:normal;text-indent:0;text-align:start;text-decoration:none;text-decoration-line:none;text-decoration-style:solid;text-decoration-color:#000000;letter-spacing:normal;word-spacing:normal;text-transform:none;writing-mode:lr-tb;direction:ltr;text-orientation:mixed;dominant-baseline:auto;baseline-shift:baseline;text-anchor:start;white-space:normal;shape-padding:0;clip-rule:nonzero;display:inline;overflow:visible;visibility:visible;opacity:1;isolation:auto;mix-blend-mode:normal;color-interpolation:sRGB;color-interpolation-filters:linearRGB;solid-color:#000000;solid-opacity:1;vector-effect:none;fill:#ffffff;fill-opacity:1;fill-rule:nonzero;stroke:none;stroke-width:0.26458332;stroke-linecap:butt;stroke-linejoin:miter;stroke-miterlimit:1;stroke-dasharray:none;stroke-dashoffset:0;stroke-opacity:1;color-rendering:auto;image-rendering:auto;shape-rendering:auto;text-rendering:auto;enable-background:accumulate" />
      <path
         inkscape:connector-curvature="0"
         id="path2378"
         d="m 66.0438,261.84229 c 0,0 -37.323274,-26.41832 -37.323274,-26.41832 0,0 74.490874,0.12158 74.490874,0.12158 0,0 -37.1676,26.29674 -37.1676,26.29674"
         style="fill:#ffffff;fill-opacity:1;fill-rule:evenodd;stroke:none;stroke-width:0.26458332;stroke-miterlimit:1;stroke-dasharray:none;stroke-opacity:1" />
    </g>
  </g>
</svg>
